<svg height="512pt" viewBox="-26 0 512 512.03071" width="512pt" xmlns="http://www.w3.org/2000/svg"><path d="m459.050781 406.101562c-9.164062 18.183594-21.789062 34.40625-37.164062 47.753907-44.050781 38.84375-111.230469 58.175781-187.941407 58.175781-86.15625 0-161.457031-29.835938-202.0625-74.328125-8.722656-9.417969-16.007812-20.066406-21.628906-31.601563-6.664062-13.765624-10.1640622-28.847656-10.238281-44.140624v-172.402344c0-101.957032 80.59375-187.9375 182.554687-189.527344 14.785157-.273438 29.550782 1.269531 43.960938 4.589844 84.378906 19.21875 144.242188 94.25 144.242188 180.789062v143.890625c-.230469 17.167969 4.0625 34.09375 12.449218 49.082031 11.652344 20.035157 36.457032 36.808594 75.828125 27.71875zm0 0" fill="#d1d4d1"/><path d="m421.886719 453.855469c-44.050781 38.84375-111.230469 58.175781-187.941407 58.175781-86.15625 0-161.457031-29.835938-202.0625-74.328125v-258.296875c-.777343-88.535156 70.359376-160.9375 158.898438-161.71875 10.769531-.015625 21.507812 1.109375 32.042969 3.351562 30.53125 6.398438 58.484375 21.695313 80.332031 43.960938 29.902344 30.566406 46.609375 71.648438 46.519531 114.40625v197.652344s0 54.996094 72.210938 76.796875zm0 0" fill="#e6e7e8"/><g fill="#ff5364"><path d="m61.808594 185.410156c-.59375.003906-1.183594-.054687-1.765625-.175781-2.292969-.46875-4.308594-1.828125-5.601563-3.78125-1.289062-1.957031-1.753906-4.339844-1.285156-6.636719 9.710938-48.605468 65.324219-67.644531 67.65625-68.441406 2.996094-1 6.296875-.324219 8.660156 1.769531 2.363282 2.097657 3.433594 5.292969 2.800782 8.386719-.632813 3.097656-2.867188 5.617188-5.863282 6.617188-.488281.160156-48.246094 16.675781-55.949218 55.15625-.820313 4.128906-4.445313 7.101562-8.652344 7.105468zm0 0"/><path d="m123.601562 185.410156c-4.191406-.003906-7.804687-2.953125-8.640624-7.0625-4.25-17.46875-15.246094-32.542968-30.582032-41.921875-7.867187-5.457031-16.390625-9.90625-25.367187-13.242187-4.632813-1.542969-7.136719-6.550782-5.589844-11.183594s6.554687-7.132812 11.183594-5.589844c10.5625 3.84375 20.582031 9.03125 29.8125 15.441406 19.070312 12.007813 32.660156 31.03125 37.835937 52.964844.46875 2.296875.003906 4.679688-1.285156 6.636719-1.292969 1.953125-3.308594 3.3125-5.601562 3.78125-.582032.121094-1.171876.179687-1.765626.175781zm0 0"/><path d="m220.703125 185.410156c-.589844.003906-1.183594-.054687-1.761719-.175781-2.296875-.46875-4.3125-1.828125-5.601562-3.78125-1.292969-1.957031-1.753906-4.339844-1.285156-6.636719 9.710937-48.605468 65.324218-67.644531 67.652343-68.441406 4.632813-1.542969 9.640625.957031 11.1875 5.589844 1.542969 4.632812-.957031 9.640625-5.589843 11.183594-.484376.160156-48.242188 16.675781-55.949219 55.15625-.820313 4.128906-4.441407 7.101562-8.652344 7.105468zm0 0"/><path d="m282.5 185.410156c-4.195312-.003906-7.804688-2.953125-8.644531-7.0625-4.246094-17.46875-15.242188-32.542968-30.578125-41.921875-7.871094-5.457031-16.394532-9.90625-25.371094-13.242187-4.632812-1.542969-7.132812-6.550782-5.585938-11.183594 1.542969-4.632812 6.550782-7.132812 11.183594-5.589844 10.558594 3.84375 20.578125 9.03125 29.808594 15.441406 19.074219 12.007813 32.664062 31.03125 37.835938 52.964844.46875 2.296875.007812 4.679688-1.285157 6.636719-1.289062 1.953125-3.304687 3.3125-5.601562 3.78125-.578125.121094-1.171875.179687-1.761719.175781zm0 0"/></g><path d="m114.773438 317.824219v44.136719c0 19.503906-15.808594 35.3125-35.308594 35.3125-19.503906 0-35.3125-15.808594-35.3125-35.3125v-44.136719" fill="#a5a5a4"/><path d="m247.1875 238.375h-150.070312c-4.875 0-8.824219-3.953125-8.824219-8.828125s3.949219-8.828125 8.824219-8.828125h150.070312c4.875 0 8.828125 3.953125 8.828125 8.828125s-3.953125 8.828125-8.828125 8.828125zm0 0" fill="#5e5f62"/><path d="m114.773438 300.167969v35.3125c0 19.5-15.808594 35.308593-35.308594 35.308593-19.503906 0-35.3125-15.808593-35.3125-35.308593v-35.3125c0-4.875 3.953125-8.828125 8.828125-8.828125h52.964843c4.875 0 8.828126 3.953125 8.828126 8.828125zm0 0" fill="#d1d4d1"/><path d="m61.808594 282.511719h35.308594v70.621093c0 9.753907-7.902344 17.65625-17.652344 17.65625s-17.65625-7.902343-17.65625-17.65625zm0 0" fill="#e6e7e8"/><path d="m300.152344 317.824219v44.136719c0 19.503906-15.808594 35.3125-35.308594 35.3125-19.503906 0-35.3125-15.808594-35.3125-35.3125v-44.136719" fill="#a5a5a4"/><path d="m300.152344 300.167969v35.3125c0 19.5-15.808594 35.308593-35.308594 35.308593-19.503906 0-35.3125-15.808593-35.3125-35.308593v-35.3125c0-4.875 3.953125-8.828125 8.828125-8.828125h52.964844c4.875 0 8.828125 3.953125 8.828125 8.828125zm0 0" fill="#d1d4d1"/><path d="m247.1875 282.511719h35.3125v70.621093c0 9.753907-7.90625 17.65625-17.65625 17.65625s-17.65625-7.902343-17.65625-17.65625zm0 0" fill="#e6e7e8"/><path d="m176.566406 229.546875h52.964844v26.484375c0 14.625-11.855469 26.480469-26.480469 26.480469-14.628906 0-26.484375-11.855469-26.484375-26.480469zm0 0" fill="#ff5364"/></svg>