<?xml version="1.0" encoding="iso-8859-1"?>
<!-- Generator: Adobe Illustrator 21.0.0, SVG Export Plug-In . SVG Version: 6.00 Build 0)  -->
<svg xmlns="http://www.w3.org/2000/svg" xmlns:xlink="http://www.w3.org/1999/xlink" version="1.1" id="Capa_1" x="0px" y="0px" viewBox="0 0 512 512" style="enable-background:new 0 0 512 512;" xml:space="preserve" width="512" height="512">
<g>
	<path d="M463.692,60.55c-56.259,0-158.633-11.456-190.698-53.679c-5.45-8.561-17.376-9.323-23.887-1.151   c-37.755,42.212-140.362,54.83-200.8,54.83c-8.284,0-15,6.741-15,15.057v240.906c0,108.501,124.899,174.785,219.516,195.395   c12.22,2.655,225.869-51.465,225.869-195.395V75.607C478.692,67.292,471.977,60.55,463.692,60.55z M448.692,316.513   c0,113.074-167.345,158.919-192.692,165.205c-25.348-6.286-192.692-52.132-192.692-165.205V90.492   c115.831-2.674,173.596-36.039,196.562-54.125c46.272,40.927,127.195,52.726,188.823,54.128V316.513z"/>
	<path d="M181.047,195.558v45.672H166c-8.284,0-15,6.741-15,15.057v120.453c0,8.315,6.716,15.057,15,15.057h180   c8.284,0,15-6.741,15-15.057V256.286c0-8.315-6.716-15.057-15-15.057H211.047v-45.672c0-23.529,18.532-44.668,45.406-44.668   c24.537,0,44.5,20.038,44.5,44.668c0,8.315,6.716,15.057,15,15.057s15-6.741,15-15.057c0-41.234-33.421-74.781-74.5-74.781   C212.774,120.777,181.047,155.682,181.047,195.558z M331,361.682H181v-90.34h150V361.682z"/>
	<ellipse cx="256" cy="316.513" rx="15" ry="15.057"/>
</g>















</svg>
