<svg height="480pt" viewBox="0 0 480 480.43154" width="480pt" xmlns="http://www.w3.org/2000/svg"><path d="m272.25 240.261719c0 17.671875-14.324219 32-32 32-17.671875 0-32-14.328125-32-32 0-17.675781 14.328125-32 32-32 17.675781 0 32 14.324219 32 32zm0 0" fill="#ffb531"/><g fill="#4db7e5"><path d="m157.402344 364.414062c-11.171875.582032-22.101563-3.394531-30.285156-11.015624-14.203126-14.203126-14.691407-39.539063-1.363282-71.335938 15.703125-34.277344 37.695313-65.296875 64.839844-91.457031 26.160156-27.136719 57.183594-49.117188 91.457031-64.800781 31.800781-13.320313 57.144531-12.800782 71.335938 1.359374 14.191406 14.160157 14.6875 39.535157 1.359375 71.335938-15.6875 34.269531-37.667969 65.292969-64.796875 91.457031-26.160157 27.136719-57.183594 49.117188-91.457031 64.800781-12.9375 5.863282-26.894532 9.144532-41.089844 9.65625zm165.664062-232.335937c-12.039062.554687-23.859375 3.421875-34.816406 8.445313-32.359375 14.886718-61.640625 35.710937-86.328125 61.394531-25.683594 24.691406-46.511719 53.976562-61.40625 86.34375-10.496094 25.046875-11.257813 44.671875-2.089844 53.847656s28.800781 8.398437 53.839844-2.089844c32.363281-14.886719 61.644531-35.707031 86.328125-61.390625 25.683594-24.699218 46.507812-53.996094 61.394531-86.367187 10.496094-25.050781 11.253907-44.671875 2.085938-53.847657-5.238281-4.558593-12.078125-6.839843-19.007813-6.335937zm0 0"/><path d="m123.769531 423.773438c-18.132812.949218-35.875-5.492188-49.175781-17.855469-21.597656-21.601563-23.679688-59.328125-5.871094-106.265625 17.015625-44.863282 50.351563-93.527344 93.871094-137.046875 43.523438-43.519531 92.195312-76.855469 137.042969-93.871094 46.933593-17.808594 84.679687-15.722656 106.269531 5.871094 21.59375 21.589843 23.679688 59.328125 5.875 106.261719-17.019531 44.867187-50.355469 93.53125-93.875 137.050781s-92.191406 76.855469-137.039062 93.871093c-18.164063 7.375-37.5 11.433594-57.097657 11.984376zm232.800781-350.9375c-17.589843.542968-34.945312 4.21875-51.246093 10.855468-42.785157 16.226563-89.449219 48.273438-131.410157 90.226563-41.957031 41.949219-74 88.621093-90.230468 131.40625-15.199219 40.105469-14.398438 72.648437 2.222656 89.28125 16.625 16.632812 49.167969 17.4375 89.28125 2.222656 42.785156-16.222656 89.449219-48.269531 131.40625-90.222656 41.960938-41.953125 73.992188-88.625 90.226562-131.410157 15.199219-40.101562 14.398438-72.648437-2.226562-89.277343-10.417969-9.269531-24.113281-13.980469-38.03125-13.082031zm0 0"/><path d="m93.117188 480.308594c-25.132813 1.292968-49.714844-7.65625-68.136719-24.800782-28.800781-28.800781-32.632813-78.527343-10.695313-139.949218 21.230469-59.441406 64.207032-123.464844 121.015625-180.273438 120.710938-120.6875 261.375-169.160156 320.222657-110.296875 28.800781 28.800781 32.632812 78.527344 10.695312 139.953125-21.230469 59.4375-64.207031 123.457032-121.015625 180.261719-56.808594 56.808594-120.800781 99.792969-180.273437 121.027344-22.964844 8.726562-47.25 13.488281-71.8125 14.078125zm293.679687-464.464844c-64.496094 0-157.960937 48.5625-240.183594 130.777344-55.203125 55.199218-96.800781 117.085937-117.257812 174.34375-19.742188 55.296875-17.28125 99.046875 6.9375 123.296875 24.214843 24.246093 68 26.664062 123.253906 6.933593 57.257813-20.4375 119.199219-62.085937 174.34375-117.261718 55.144531-55.175782 96.800781-117.089844 117.257813-174.335938 19.742187-55.335937 17.277343-99.089844-6.898438-123.296875-15.609375-14.285156-36.328125-21.664062-57.453125-20.457031zm0 0"/></g><path d="m368.25 133.011719c0 11.460937-9.289062 20.753906-20.75 20.753906s-20.753906-9.292969-20.753906-20.753906c0-11.460938 9.292968-20.75 20.753906-20.75s20.75 9.289062 20.75 20.75zm0 0" fill="#f35244"/><path d="m104.585938 400.597656c0 13.253906-10.742188 24-24 24-13.253907 0-24-10.746094-24-24s10.746093-24 24-24c13.257812 0 24 10.746094 24 24zm0 0" fill="#95573a"/><path d="m313.25 33.507812c0 13.253907-10.742188 24-24 24-13.253906 0-24-10.746093-24-24 0-13.253906 10.746094-24 24-24 13.257812 0 24 10.746094 24 24zm0 0" fill="#348fd9"/><path d="m56.25 432.261719c-3.234375 0-6.148438-1.949219-7.386719-4.941407-1.238281-2.988281-.554687-6.425781 1.730469-8.714843l48-48c3.140625-3.03125 8.128906-2.988281 11.214844.097656 3.085937 3.085937 3.128906 8.074219.097656 11.214844l-48 48c-1.5 1.5-3.535156 2.34375-5.65625 2.34375zm0 0" fill="#662e13"/></svg>