<?xml version="1.0" encoding="iso-8859-1"?>
<!-- Generator: Adobe Illustrator 18.0.0, SVG Export Plug-In . SVG Version: 6.00 Build 0)  -->
<!DOCTYPE svg PUBLIC "-//W3C//DTD SVG 1.1//EN" "http://www.w3.org/Graphics/SVG/1.1/DTD/svg11.dtd">
<svg version="1.1" id="Capa_1" xmlns="http://www.w3.org/2000/svg" xmlns:xlink="http://www.w3.org/1999/xlink" x="0px" y="0px"
	 viewBox="0 0 114.795 114.795" style="enable-background:new 0 0 114.795 114.795;" xml:space="preserve">
<g>
	<path style="fill:#FFC847;" d="M57.397,8.865c0.663,0,1.2-0.537,1.2-1.2V1.201c0-0.663-0.537-1.2-1.2-1.2s-1.2,0.537-1.2,1.2v6.464
		C56.197,8.328,56.734,8.865,57.397,8.865z"/>
	<path style="fill:#FFC847;" d="M57.397,105.93c-0.663,0-1.2,0.537-1.2,1.2v6.464c0,0.663,0.537,1.2,1.2,1.2s1.2-0.537,1.2-1.2
		v-6.464C58.598,106.467,58.061,105.93,57.397,105.93z"/>
	<path style="fill:#FFC847;" d="M37.257,11.909c0.191,0.462,0.638,0.741,1.108,0.741c0.153,0,0.309-0.029,0.459-0.092
		c0.612-0.253,0.903-0.955,0.649-1.567L37,5.019c-0.253-0.612-0.954-0.902-1.567-0.649c-0.612,0.253-0.903,0.955-0.649,1.567
		L37.257,11.909z"/>
	<path style="fill:#FFC847;" d="M77.538,102.886c-0.253-0.612-0.955-0.903-1.567-0.649c-0.612,0.253-0.903,0.955-0.649,1.567
		l2.474,5.972c0.191,0.462,0.638,0.741,1.108,0.741c0.153,0,0.309-0.029,0.459-0.092c0.612-0.253,0.903-0.955,0.649-1.567
		L77.538,102.886z"/>
	<path style="fill:#FFC847;" d="M18.509,16.811c-0.469-0.469-1.229-0.469-1.697,0c-0.469,0.469-0.469,1.229,0,1.697l4.571,4.571
		c0.234,0.234,0.542,0.352,0.849,0.352c0.307,0,0.614-0.117,0.849-0.352c0.469-0.469,0.469-1.228,0-1.697L18.509,16.811z"/>
	<path style="fill:#FFC847;" d="M93.413,91.715c-0.468-0.468-1.228-0.469-1.697,0c-0.469,0.469-0.469,1.229,0,1.697l4.57,4.571
		c0.234,0.234,0.541,0.352,0.849,0.352c0.307,0,0.614-0.117,0.849-0.352c0.469-0.469,0.469-1.229,0-1.697L93.413,91.715z"/>
	<path style="fill:#FFC847;" d="M11.909,37.257l-5.972-2.474c-0.61-0.254-1.313,0.037-1.567,0.649
		C4.116,36.045,4.407,36.748,5.02,37l5.972,2.474c0.15,0.063,0.306,0.092,0.459,0.092c0.471,0,0.917-0.279,1.108-0.741
		C12.813,38.212,12.521,37.51,11.909,37.257z"/>
	<path style="fill:#FFC847;" d="M109.776,77.794l-5.972-2.473c-0.611-0.254-1.313,0.037-1.567,0.649
		c-0.254,0.612,0.037,1.315,0.649,1.567l5.972,2.473c0.15,0.063,0.306,0.092,0.459,0.092c0.471,0,0.917-0.279,1.108-0.741
		C110.68,78.749,110.389,78.047,109.776,77.794z"/>
	<path style="fill:#FFC847;" d="M8.864,57.397c0-0.663-0.537-1.2-1.2-1.2H1.2c-0.663,0-1.2,0.537-1.2,1.2c0,0.663,0.537,1.2,1.2,1.2
		h6.464C8.327,58.597,8.864,58.06,8.864,57.397z"/>
	<path style="fill:#FFC847;" d="M113.595,56.197h-6.464c-0.663,0-1.2,0.537-1.2,1.2c0,0.663,0.537,1.2,1.2,1.2h6.464
		c0.663,0,1.2-0.537,1.2-1.2C114.795,56.734,114.258,56.197,113.595,56.197z"/>
	<path style="fill:#FFC847;" d="M10.991,75.322L5.02,77.794c-0.612,0.253-0.903,0.955-0.649,1.567
		c0.191,0.462,0.638,0.741,1.108,0.741c0.153,0,0.309-0.029,0.459-0.092l5.972-2.473c0.612-0.253,0.903-0.955,0.649-1.567
		C12.305,75.359,11.603,75.068,10.991,75.322z"/>
	<path style="fill:#FFC847;" d="M103.346,39.566c0.153,0,0.309-0.029,0.459-0.092L109.776,37c0.612-0.253,0.903-0.955,0.649-1.567
		c-0.253-0.612-0.954-0.902-1.567-0.649l-5.972,2.474c-0.612,0.253-0.903,0.955-0.649,1.567
		C102.429,39.287,102.875,39.566,103.346,39.566z"/>
	<path style="fill:#FFC847;" d="M21.383,91.715l-4.571,4.571c-0.469,0.469-0.469,1.229,0,1.697c0.234,0.234,0.542,0.352,0.849,0.352
		c0.307,0,0.614-0.117,0.849-0.352l4.571-4.571c0.469-0.469,0.469-1.229,0-1.697C22.611,91.247,21.852,91.247,21.383,91.715z"/>
	<path style="fill:#FFC847;" d="M96.286,16.811l-4.57,4.571c-0.469,0.469-0.469,1.229,0,1.697c0.234,0.234,0.542,0.352,0.849,0.352
		c0.308,0,0.614-0.117,0.849-0.352l4.57-4.571c0.469-0.469,0.469-1.229,0-1.697C97.515,16.342,96.755,16.343,96.286,16.811z"/>
	<path style="fill:#FFC847;" d="M38.824,102.237c-0.611-0.255-1.313,0.037-1.567,0.649l-2.474,5.972
		c-0.254,0.612,0.037,1.314,0.649,1.567c0.15,0.063,0.306,0.092,0.459,0.092c0.471,0,0.917-0.279,1.108-0.741l2.474-5.972
		C39.728,103.192,39.437,102.49,38.824,102.237z"/>
	<path style="fill:#FFC847;" d="M75.971,12.558c0.15,0.063,0.306,0.092,0.459,0.092c0.471,0,0.917-0.279,1.108-0.741l2.474-5.972
		c0.254-0.612-0.037-1.314-0.649-1.567c-0.611-0.254-1.313,0.037-1.567,0.649l-2.474,5.972
		C75.067,11.603,75.358,12.305,75.971,12.558z"/>
	<polygon style="fill:#FFC847;" points="76.743,38.052 63.269,45.212 57.397,26.026 51.527,45.212 38.053,38.052 45.213,51.527 
		26.026,57.397 45.214,63.268 38.053,76.743 51.527,69.582 57.397,88.769 63.269,69.582 76.743,76.743 69.583,63.268 88.77,57.397 
		69.583,51.527 	"/>
</g>
<g>
</g>
<g>
</g>
<g>
</g>
<g>
</g>
<g>
</g>
<g>
</g>
<g>
</g>
<g>
</g>
<g>
</g>
<g>
</g>
<g>
</g>
<g>
</g>
<g>
</g>
<g>
</g>
<g>
</g>
</svg>
