<?xml version="1.0"?>
<svg xmlns="http://www.w3.org/2000/svg" viewBox="0 0 64 64" width="512" height="512"><g id="flat"><path d="M53,7a8,8,0,0,0-8,8,8.376,8.376,0,0,0,2,5,33.1,33.1,0,0,0-7,7,17.906,17.906,0,0,0-6-1.845V19a8.307,8.307,0,0,0,6-8,8,8,0,0,0-16,0,8.307,8.307,0,0,0,6,8v6a9.73,9.73,0,0,0-5,1c-2-3-4.095-3.933-6-4V20a8,8,0,1,0-8,8,7.338,7.338,0,0,0,5-2c1.788.2,3.947.7,5,3-2.247,2.486-3,6.135-3,10V57H16.107a2.075,2.075,0,0,0-2.08,1.664A2,2,0,0,0,16,61H28V59a2,2,0,0,1,2-2h4a2,2,0,0,1,2,2v2H48a2,2,0,0,0,1.973-2.336A2.075,2.075,0,0,0,47.893,57H46V39c0-3.111,0-6-2-9a21.021,21.021,0,0,1,6-7h3A8,8,0,0,0,53,7Z" style="fill:#f98c96"/><circle cx="32" cy="13" r="2" style="fill:#2e3131"/><path d="M38.921,7A7.988,7.988,0,0,0,25.079,7Z" style="fill:#dd3e46"/><circle cx="9" cy="22" r="2" style="fill:#2e3131"/><path d="M17.921,16A7.988,7.988,0,0,0,4.079,16Z" style="fill:#dd3e46"/><circle cx="55" cy="17" r="2" style="fill:#2e3131"/><path d="M59.921,11a7.988,7.988,0,0,0-13.842,0Z" style="fill:#dd3e46"/><rect x="18" y="56" width="5" height="2" style="fill:#dd3e46"/><rect x="41" y="56" width="5" height="2" style="fill:#dd3e46"/><path d="M37,46a.986.986,0,0,1-.371-.071,13.823,13.823,0,0,0-9.258,0,1,1,0,1,1-.742-1.858,15.73,15.73,0,0,1,10.742,0A1,1,0,0,1,37,46Z" style="fill:#dd3e46"/><path d="M33,49H31a1,1,0,0,1,0-2h2a1,1,0,0,1,0,2Z" style="fill:#dd3e46"/><rect x="21" y="50" width="2" height="2" style="fill:#dd3e46"/><rect x="25" y="52" width="2" height="2" style="fill:#dd3e46"/></g></svg>
