<?xml version="1.0" encoding="iso-8859-1"?>
<!-- Generator: Adobe Illustrator 19.0.0, SVG Export Plug-In . SVG Version: 6.00 Build 0)  -->
<svg version="1.1" id="Layer_1" xmlns="http://www.w3.org/2000/svg" xmlns:xlink="http://www.w3.org/1999/xlink" x="0px" y="0px"
	 viewBox="0 0 512.002 512.002" style="enable-background:new 0 0 512.002 512.002;" xml:space="preserve">
<g>
	<path style="fill:#E9573F;" d="M103.1,496.672c-10.984,0-24.508-5.922-36.172-15.828c-9.547-8.094-16.859-18.172-20.07-27.641
		c-2.578-7.594-2.281-14.031,0.812-17.688c2.922-3.438,7.961-4.156,11.672-4.156c10.992,0,24.516,5.906,36.18,15.812
		c9.539,8.109,16.852,18.188,20.062,27.641c2.578,7.594,2.289,14.047-0.812,17.688C111.858,495.938,106.819,496.672,103.1,496.672z"
		/>
	<path style="fill:#E9573F;" d="M493.33,258.346c-9.266,0-29.594-18.406-43.688-52.953c-7.094-17.374-11.016-35.437-10.781-49.546
		c0.219-11.984,3.344-18.578,6.344-19.812c0.5-0.203,1.031-0.297,1.656-0.297c9.25,0,29.594,18.406,43.688,52.969
		c7.094,17.374,11,35.421,10.781,49.53c-0.219,11.984-3.344,18.594-6.344,19.812C494.486,258.252,493.955,258.346,493.33,258.346z"
		/>
	<path style="fill:#E9573F;" d="M104.483,69.332c-10.297,0-17.891-3.109-20.336-8.328c-2.023-4.328-0.617-10.625,3.867-17.281
		c5.586-8.281,15.289-16.078,26.625-21.391c9.625-4.5,19.883-6.984,28.898-6.984c10.297,0,17.898,3.109,20.336,8.312
		c2.023,4.328,0.617,10.625-3.867,17.281c-5.586,8.281-15.289,16.078-26.625,21.391C123.764,66.848,113.499,69.332,104.483,69.332z"
		/>
</g>
<path style="fill:#FC6E51;" d="M500.424,184.675c-14.266-34.969-36.938-59.594-53.562-59.594c-1.984,0-3.891,0.344-5.688,1.078
	l-24.656,10.828c-25.905-36.141-62.007-64.452-104.115-80.718c0.156-0.734,0.242-1.484,0.242-2.266
	c0-5.891-4.773-10.656-10.664-10.656c-4.297,0-7.992,2.547-9.68,6.203c-19.906-5.641-40.921-8.656-62.632-8.656
	c-15.039,0-29.734,1.469-43.968,4.234l-12.172-25.984c-4.445-9.5-15.852-14.469-29.992-14.469c-10.242,0-21.929,2.609-33.421,8
	c-27.344,12.813-43.297,36.47-35.625,52.86l11.953,25.5c-17.836,14.249-33.492,31.093-46.414,49.968
	c-1.953-2.25-4.82-3.672-8.031-3.672c-5.891,0-10.664,4.781-10.664,10.672c0,4.938,3.375,9.094,7.945,10.297
	C10.632,191.487,0,229.783,0,270.564c0,17.281,1.914,34.125,5.539,50.312C2.242,322.688,0,326.204,0,330.234
	c0,5.875,4.773,10.656,10.664,10.656c0.109,0,0.211-0.016,0.32-0.016c8.765,27.266,22.476,52.327,40.093,74.093l-11.531,13.641
	c-11.711,13.797-2.547,40.828,20.476,60.375c14.086,11.953,30.094,18.344,43.078,18.344c8.234,0,15.257-2.562,19.804-7.922
	l15.328-18.109c28.015,12.172,58.937,18.938,91.437,18.938c33.624,0,65.546-7.234,94.327-20.219
	c1.508,4.047,5.406,6.938,9.984,6.938c5.89,0,10.663-4.766,10.663-10.656c0-2.172-0.656-4.188-1.766-5.875
	c34.984-19.875,64.233-48.656,84.671-83.266c1.594,0.938,3.438,1.484,5.406,1.484c5.906,0,10.672-4.781,10.672-10.671
	c0-4.266-2.5-7.922-6.109-9.641c12.031-25.531,19.5-53.624,21.344-83.265l40.156-17.125
	C515.768,261.096,516.393,223.83,500.424,184.675z M103.1,486c-6.289,0-17.727-3.484-29.273-13.281
	c-7.289-6.188-12.969-13.516-15.984-20.641c-2.227-5.234-2.172-8.484-1.961-9.578c0.469-0.188,1.547-0.469,3.469-0.469
	c6.289,0,17.727,3.469,29.266,13.281c7.297,6.188,12.977,13.516,15.992,20.625c2.227,5.25,2.172,8.5,1.961,9.594
	C106.092,485.703,105.014,486,103.1,486z M149.709,36.973c-4.781,6.062-12.187,11.641-20.851,15.703
	c-8.234,3.859-16.89,5.984-24.375,5.984c-6.375,0-9.617-1.531-10.578-2.219c0.078-1.109,0.875-4.266,4.406-8.75
	c4.781-6.062,12.188-11.641,20.851-15.703c8.234-3.859,16.891-5.984,24.382-5.984c6.367,0,9.609,1.531,10.578,2.219
	C154.037,29.332,153.24,32.488,149.709,36.973z M489.924,245.674c-2.5-1.719-5.969-4.688-10.062-9.5
	c-7.625-8.969-14.844-21.328-20.344-34.812c-5.5-13.483-8.984-27.374-9.812-39.108c-0.438-6.312-0.031-10.859,0.562-13.828
	c2.5,1.719,5.969,4.688,10.062,9.5c7.625,8.953,14.844,21.328,20.344,34.812c5.5,13.483,8.984,27.374,9.812,39.108
	C490.924,238.143,490.518,242.69,489.924,245.674z"/>
<g>
	<path style="fill:#E9573F;" d="M319.324,155.972c-2.641,20.562-28.461,34.188-57.672,30.438
		c-29.21-3.75-50.749-23.469-48.108-44.031c2.641-20.547,28.46-34.172,57.671-30.422
		C300.434,115.706,321.973,135.425,319.324,155.972z"/>
	<path style="fill:#E9573F;" d="M356.401,328.064c10.922,17.093,3.477,41.374-16.633,54.232c-20.116,12.859-45.28,9.438-56.21-7.655
		c-10.93-17.078-3.484-41.359,16.633-54.218C320.309,307.549,345.472,310.986,356.401,328.064z"/>
	<path style="fill:#E9573F;" d="M228.528,281.986c0,35.344-33.429,63.983-74.664,63.983c-41.226,0-74.655-28.64-74.655-63.983
		s33.43-64,74.655-64C195.099,217.986,228.528,246.643,228.528,281.986z"/>
</g>
<g>
</g>
<g>
</g>
<g>
</g>
<g>
</g>
<g>
</g>
<g>
</g>
<g>
</g>
<g>
</g>
<g>
</g>
<g>
</g>
<g>
</g>
<g>
</g>
<g>
</g>
<g>
</g>
<g>
</g>
</svg>
