<svg id="Capa_1" enable-background="new 0 0 512 512" height="512" viewBox="0 0 512 512" width="512" xmlns="http://www.w3.org/2000/svg"><path d="m255 481c-49.131 0-95.815-15.557-135.015-44.985-6.621-4.98-7.954-14.385-2.988-21.006s14.385-7.954 21.006-2.988c43.198 32.446 98.848 45.308 151.436 35.947 8.232-1.45 15.938 3.97 17.402 12.129 1.465 8.145-3.97 15.938-12.129 17.402-12.993 2.329-26.353 3.501-39.712 3.501z" fill="#ffe6b3"/><path d="m86.997 397.006c-4.556 0-9.067-2.065-12.012-5.991-29.428-39.2-44.985-86.884-44.985-136.015 0-13.359 1.172-26.719 3.501-39.712 1.45-8.174 9.258-13.594 17.402-12.129 8.159 1.465 13.594 9.258 12.129 17.402-2.007 11.251-3.032 22.837-3.032 34.439 0 42.583 13.477 84.042 38.979 117.997 4.966 6.621 3.633 16.025-2.988 21.006-2.695 2.021-5.859 3.003-8.994 3.003z" fill="#fff7cc"/><path d="m381.991 101.982c-3.135 0-6.299-.981-8.994-3.003-43.198-32.461-99.877-45.352-152.436-35.947-8.101 1.479-15.923-3.955-17.402-12.129-1.465-8.145 3.97-15.938 12.129-17.402 60.776-10.942 125.863 4.058 175.727 41.484 6.621 4.98 7.954 14.385 2.988 21.006-2.944 3.926-7.456 5.991-12.012 5.991z" fill="#ffe6b3"/><path d="m462.748 308.075c-.879 0-1.758-.073-2.651-.234-8.159-1.465-13.594-10.258-12.129-18.402 2.007-11.251 3.032-22.837 3.032-34.439 0-42.583-13.477-83.042-38.979-116.997-4.966-6.621-3.633-16.025 2.988-21.006 6.636-4.922 16.069-3.618 21.006 2.988 29.428 39.2 44.985 85.884 44.985 135.015 0 13.359-1.172 26.719-3.501 39.712-1.304 7.266-7.617 13.363-14.751 13.363z" fill="#ffe6b3"/><path d="m105 451c-24.814 0-45-20.186-45-45s20.186-45 45-45 45 20.186 45 45-20.186 45-45 45z" fill="#ff8e8e"/><path d="m406 150c-24.814 0-45-20.186-45-45s20.186-45 45-45 45 20.186 45 45-20.186 45-45 45z" fill="#fdbf00"/><path d="m376 240c-74.399 0-136 61.599-136 136 0 74.399 61.601 136 136 136s136-61.601 136-136c0-74.401-61.601-136-136-136z" fill="#766e6e"/><g fill="#5b5555"><path d="m512 376c0 74.399-61.601 136-136 136v-272c74.399 0 136 61.599 136 136z"/><circle cx="346" cy="436" r="15"/><path d="m451 376c0 24.899-20.099 45-45 45-11.7 0-22.2-4.501-30-11.7-9.3-8.101-15-20.099-15-33.3 0-8.401 6.599-15 15-15s15 6.599 15 15c0 8.399 6.599 15 15 15s15-6.601 15-15c0-8.401-6.599-15-15-15s-15-6.601-15-15c0-8.401 6.599-15 15-15 24.901 0 45 20.099 45 45z"/><path d="m313.876 355.873c-24.814 0-46-20.186-46-45s21.186-46 46-46 45 21.186 45 46-20.186 45-45 45z"/></g><path d="m451 376c0 24.899-20.099 45-45 45-11.7 0-22.2-4.501-30-11.7v-48.3c8.401 0 15 6.599 15 15 0 8.399 6.599 15 15 15s15-6.601 15-15c0-8.401-6.599-15-15-15s-15-6.601-15-15c0-8.401 6.599-15 15-15 24.901 0 45 20.099 45 45z" fill="#32393f"/><path d="m232.8 180.599-23.1 66.601c-18.6 12.599-48.6 22.8-74.7 22.8-25.8 0-56.4-9.6-78.3-25.501l-55.2-94.499c-.599-5.101-1.5-9.901-1.5-15 0-71.7 59.7-135 135-135 9.6 0 19.2 1.199 28.5 2.999l51 33.001z" fill="#76e2f8"/><path d="m232.8 180.599-23.1 66.601c-18.6 12.599-48.6 22.8-74.7 22.8v-270c9.6 0 19.2 1.199 28.5 2.999l51 33.001z" fill="#4bb9ec"/><path d="m108.938 168.742-29.836-14.919c-5.029-2.514-10.573-3.823-16.195-3.823h-61.391c4.38 38.936 24.911 72.878 55.259 94.607 11.86-2.875 22.928-7.905 32.492-15.564 14.199-11.386 23.651-26.908 27.821-44.147 1.57-6.488-2.179-13.168-8.15-16.154z" fill="#b9dd39"/><path d="m270 135c0-64.697-45.782-118.795-106.622-131.88 10.47 11.973 16.622 27.424 16.622 43.535v7.134c0 18.134-7.242 35.159-20.368 47.77-6.589 6.33-9.631 15.515-9.631 24.652v21.318c0 5.257 2.9 9.914 7.355 12.706 23.431 14.682 40.899 37.554 48.456 64.385 2.108 7.487 3.309 15.093 3.832 22.722 36.329-24.219 60.356-65.496 60.356-112.342z" fill="#90cc1c"/></svg>