<svg height="512pt" viewBox="-14 0 512 512" width="512pt" xmlns="http://www.w3.org/2000/svg"><path d="m26.15625 255.0625c0 54.070312 19.535156 103.574219 51.929688 141.839844.007812.011718.007812.011718.019531.019531 40.289062 47.574219 100.460937 77.777344 167.6875 77.777344 59.917969 0 114.21875-23.980469 153.84375-62.882813 35.871093-35.207031 59.71875-82.644531 64.777343-135.5625.675782-6.980468 1.011719-14.042968 1.011719-21.191406 0-67.222656-30.199219-127.394531-77.773437-167.683594-13.453125-11.398437-28.304688-21.210937-44.253906-29.128906-29.402344-14.609375-62.546876-22.824219-97.605469-22.824219-91.34375 0-169.667969 55.757813-202.78125 135.101563-10.859375 26.03125-16.855469 54.578125-16.855469 84.535156zm0 0" fill="#9bf2e5"/><path d="m26.15625 255.0625c0 54.070312 19.535156 103.574219 51.929688 141.839844.007812.011718.007812.011718.019531.019531 40.289062 47.574219 100.460937 77.777344 167.6875 77.777344v-439.269531c-91.347657 0-169.667969 55.753906-202.78125 135.101562-10.859375 26.027344-16.855469 54.574219-16.855469 84.53125zm0 0" fill="#5100cb"/><path d="m245.792969 474.699219c59.917969 0 114.21875-23.980469 153.84375-62.882813 35.871093-35.207031 59.71875-82.644531 64.777343-135.5625.675782-6.980468 1.011719-14.042968 1.011719-21.191406 0-67.222656-30.199219-127.394531-77.773437-167.683594h-.011719c32.382813 38.265625 51.917969 87.757813 51.917969 141.816406 0 7.144532-.335938 14.207032-1.011719 21.1875-5.0625 52.917969-28.90625 100.355469-64.78125 135.566407-39.625 38.886719-93.925781 62.878906-153.84375 62.878906-54.066406 0-103.550781-19.53125-141.816406-51.90625 40.289062 47.574219 100.460937 77.777344 167.6875 77.777344zm0 0" fill="#2de0c7"/><path d="m204.519531 129.152344v40.027344c0 26.132812 17.417969 48.199218 41.273438 55.230468 5.164062 1.515625 10.625 2.328125 16.273437 2.328125h38.425782c2.59375 0 5.070312 1.023438 6.894531 2.859375l23.117187 23.105469c1.835938 1.832031 4.3125 2.855469 6.894532 2.855469h29.191406c2.582031 0 5.058594 1.035156 6.890625 2.859375l14.980469 14.980469c1.824218 1.832031 4.3125 2.855468 6.894531 2.855468h69.058593c.675782-6.980468 1.011719-14.042968 1.011719-21.1875 0-67.238281-30.203125-127.410156-77.777343-167.6875h-.007813c-13.453125-11.394531-28.296875-21.199218-44.246094-29.125v65.714844c0 2.582031-1.03125 5.070312-2.855469 6.894531l-17.089843 17.078125c-1.820313 1.832032-4.300781 2.855469-6.890625 2.855469h-26.335938c-5.386718 0-9.75-4.351563-9.75-9.75v-43.632813c0-5.398437-4.375-9.761718-9.761718-9.761718h-35.578126c-3.289062 0-6.355468 1.652344-8.160156 4.40625l-20.847656 31.738281c-1.054688 1.59375-1.605469 3.460937-1.605469 5.355469zm0 0" fill="#84e507"/><path d="m245.792969 224.410156v-136.757812h-10.660157c-3.289062 0-6.355468 1.65625-8.15625 4.40625l-20.851562 31.742187c-1.054688 1.589844-1.601562 3.457031-1.601562 5.351563v40.027344c-.003907 26.132812 17.414062 48.199218 41.269531 55.230468zm0 0" fill="#898ec9"/><path d="m438.546875 250.382812c-.84375 8.78125-2.195313 17.414063-4.050781 25.871094h29.917968c.675782-6.980468 1.011719-14.042968 1.011719-21.191406 0-67.234375-30.203125-127.40625-77.777343-167.683594h-.007813c32.382813 38.265625 51.917969 87.757813 51.917969 141.816406 0 7.148438-.339844 14.210938-1.011719 21.1875zm0 0" fill="#69cc00"/><path d="m26.15625 255.0625c0 54.082031 19.542969 103.59375 51.949219 141.859375l.011719.011719c40.289062 47.574218 100.449218 77.765625 167.675781 77.765625 59.917969 0 114.21875-23.980469 153.84375-62.882813h-81.550781c-2.582032 0-5.058594-1.019531-6.894532-2.855468l-20.902344-20.902344c-1.835937-1.835938-2.855468-4.3125-2.855468-6.894532v-75.4375c0-5.375-4.375-9.75-9.761719-9.75h-116.929687c-2.582032 0-5.058594-1.023437-6.894532-2.859374l-23.359375-23.359376c-1.835937-1.832031-2.855469-4.3125-2.855469-6.902343v-52.015625c0-2.582032-1.023437-5.058594-2.859374-6.894532l-30.558594-30.546874c-1.835938-1.835938-4.3125-2.867188-6.894532-2.867188h-44.308593c-10.859375 26.027344-16.855469 54.574219-16.855469 84.53125zm0 0" fill="#84e507"/><path d="m341.972656 411.816406c-34.902344 23.371094-76.878906 37.011719-122.050781 37.011719-54.066406 0-103.539063-19.53125-141.808594-51.894531 40.292969 47.574218 100.453125 77.765625 167.679688 77.765625 59.917969 0 114.21875-23.980469 153.84375-62.882813zm0 0" fill="#69cc00"/><path d="m245.792969 295.976562v178.722657c-67.226563 0-127.386719-30.191407-167.675781-77.765625l-.011719-.011719c-32.40625-38.265625-51.949219-87.777344-51.949219-141.859375 0-29.957031 5.996094-58.503906 16.855469-84.53125h44.308593c2.582032 0 5.058594 1.03125 6.894532 2.867188l30.558594 30.546874c1.832031 1.835938 2.855468 4.3125 2.855468 6.894532v52.015625c0 2.589843 1.023438 5.070312 2.859375 6.902343l23.359375 23.359376c1.832032 1.835937 4.3125 2.859374 6.894532 2.859374zm0 0" fill="#898ec9"/><path d="m245.792969 447.3125v27.386719c-67.226563 0-127.386719-30.191407-167.675781-77.765625 38.265624 32.363281 87.738281 51.894531 141.804687 51.894531 8.75 0 17.382813-.515625 25.871094-1.515625zm0 0" fill="#6163aa"/><path d="m316.085938 349.265625c-4.175782 0-7.5625-3.386719-7.5625-7.5625v-24.972656c0-4.171875 3.386718-7.558594 7.5625-7.558594 4.171874 0 7.558593 3.386719 7.558593 7.558594v24.972656c-.003906 4.175781-3.386719 7.5625-7.558593 7.5625zm0 0" fill="#84e507"/><path d="m161.6875 378.710938c-4.175781 0-7.558594-3.386719-7.558594-7.5625v-.097657c0-4.175781 3.382813-7.5625 7.558594-7.5625s7.558594 3.386719 7.558594 7.5625v.097657c0 4.175781-3.386719 7.5625-7.558594 7.5625zm0 0" fill="#5100cb"/><path d="m413.785156 230.855469c-4.175781 0-7.558594-3.386719-7.558594-7.558594v-.101563c0-4.175781 3.382813-7.558593 7.558594-7.558593 4.175782 0 7.558594 3.382812 7.558594 7.558593v.101563c0 4.171875-3.382812 7.558594-7.558594 7.558594zm0 0" fill="#69cc00"/><path d="m399.640625 246.140625c-4.175781 0-7.5625-3.382813-7.5625-7.558594v-.101562c0-4.175781 3.386719-7.558594 7.5625-7.558594 4.171875 0 7.558594 3.382813 7.558594 7.558594v.101562c0 4.171875-3.386719 7.558594-7.558594 7.558594zm0 0" fill="#69cc00"/><path d="m177.09375 361.417969c-4.171875 0-7.558594-3.382813-7.558594-7.558594v-.101563c0-4.171874 3.382813-7.558593 7.558594-7.558593s7.558594 3.386719 7.558594 7.558593v.101563c0 4.175781-3.382813 7.558594-7.558594 7.558594zm0 0" fill="#6163aa"/><path d="m179.011719 174.8125c-4.175781 0-7.5625-3.382812-7.5625-7.558594v-25.0625c0-4.171875 3.386719-7.558594 7.5625-7.558594 4.171875 0 7.558593 3.382813 7.558593 7.558594v25.0625c0 4.171875-3.386718 7.558594-7.558593 7.558594zm0 0" fill="#898ec9"/><path d="m245.792969 510.128906c-4.175781 0-7.558594-3.386718-7.558594-7.558594v-495.011718c0-4.171875 3.382813-7.558594 7.558594-7.558594 4.171875 0 7.558593 3.382812 7.558593 7.558594v495.011718c0 4.171876-3.386718 7.558594-7.558593 7.558594zm0 0" fill="#ff5c3c"/><path d="m43.050781 429.441406c-.011719 0-.023437 0-.035156 0-4.175781-.019531-7.542969-3.421875-7.523437-7.597656l.015624-3.035156c.019532-4.164063 3.398438-7.523438 7.558594-7.523438h.035156c4.175782.019532 7.542969 3.421875 7.523438 7.597656l-.015625 3.035157c-.019531 4.160156-3.398437 7.523437-7.558594 7.523437zm0 0" fill="#fed370"/><path d="m42.957031 460.347656c-.011719 0-.023437 0-.039062 0-4.171875-.019531-7.539063-3.421875-7.519531-7.597656l.011718-3.035156c.023438-4.160156 3.402344-7.523438 7.558594-7.523438h.039062c4.175782.023438 7.542969 3.421875 7.523438 7.597656l-.015625 3.035157c-.023437 4.164062-3.402344 7.523437-7.558594 7.523437zm0 0" fill="#fed370"/><path d="m59.984375 443.429688c-.015625 0-.027344 0-.039063 0l-3.035156-.015626c-4.175781-.019531-7.542968-3.421874-7.523437-7.59375.019531-4.175781 3.398437-7.511718 7.597656-7.523437l3.035156.015625c4.171875.019531 7.542969 3.421875 7.523438 7.59375-.023438 4.164062-3.402344 7.523438-7.558594 7.523438zm0 0" fill="#fed370"/><path d="m29.074219 443.335938c-.011719 0-.023438 0-.035157 0l-3.035156-.015626c-4.175781-.019531-7.542968-3.421874-7.523437-7.597656.019531-4.160156 3.402343-7.519531 7.558593-7.519531h.035157l3.039062.015625c4.171875.019531 7.539063 3.417969 7.519531 7.59375-.019531 4.164062-3.398437 7.523438-7.558593 7.523438zm0 0" fill="#fed370"/><path d="m73.960938 476.144531c-.015626 0-.027344 0-.039063 0-4.175781-.023437-7.542969-3.421875-7.523437-7.597656l.015624-3.035156c.019532-4.175781 3.371094-7.535157 7.597657-7.523438 4.171875.019531 7.539062 3.421875 7.519531 7.597657l-.015625 3.035156c-.019531 4.160156-3.398437 7.523437-7.554687 7.523437zm0 0" fill="#fda736"/><path d="m73.863281 507.050781c-.011719 0-.023437 0-.039062 0-4.171875-.019531-7.542969-3.421875-7.519531-7.597656l.011718-3.035156c.023438-4.160157 3.402344-7.523438 7.558594-7.523438h.039062c4.175782.019531 7.542969 3.421875 7.523438 7.597657l-.015625 3.035156c-.019531 4.164062-3.402344 7.523437-7.558594 7.523437zm0 0" fill="#fda736"/><path d="m90.890625 490.132812c-.011719 0-.027344 0-.039063 0l-3.035156-.015624c-4.175781-.019532-7.542968-3.417969-7.523437-7.59375.019531-4.175782 3.445312-7.546876 7.597656-7.523438l3.035156.015625c4.175781.019531 7.542969 3.421875 7.523438 7.597656-.019531 4.160157-3.402344 7.519531-7.558594 7.519531zm0 0" fill="#fda736"/><path d="m59.984375 490.039062c-.015625 0-.027344 0-.039063 0l-3.035156-.015624c-4.175781-.019532-7.542968-3.421876-7.523437-7.597657.019531-4.160156 3.402343-7.519531 7.558593-7.519531h.039063l3.035156.015625c4.171875.019531 7.542969 3.417969 7.523438 7.59375-.023438 4.164063-3.402344 7.523437-7.558594 7.523437zm0 0" fill="#fda736"/><path d="m27.613281 388.039062h-.109375c-4.175781 0-7.558594-3.382812-7.558594-7.558593s3.382813-7.558594 7.558594-7.558594h.109375c4.171875 0 7.558594 3.382813 7.558594 7.558594s-3.386719 7.558593-7.558594 7.558593zm0 0" fill="#fed370"/><path d="m154.824219 494.351562h-.109375c-4.171875 0-7.558594-3.386718-7.558594-7.5625 0-4.171874 3.386719-7.558593 7.558594-7.558593h.109375c4.175781 0 7.558593 3.386719 7.558593 7.558593 0 4.175782-3.382812 7.5625-7.558593 7.5625zm0 0" fill="#fed370"/><path d="m7.667969 137.378906c-.011719 0-.023438 0-.035157 0h-.109374c-4.171876-.019531-7.5429692-3.421875-7.523438-7.59375.0195312-4.164062 3.398438-7.527344 7.558594-7.527344h.035156.105469c4.175781.019532 7.542969 3.417969 7.527343 7.59375-.019531 4.164063-3.402343 7.527344-7.558593 7.527344zm0 0" fill="#fda736"/><path d="m27.558594 145.796875c-.011719 0-.023438 0-.035156 0h-.109376c-4.171874-.019531-7.542968-3.417969-7.523437-7.59375.019531-4.164063 3.398437-7.523437 7.558594-7.523437h.03125.109375c4.175781.015624 7.542968 3.417968 7.527344 7.589843-.019532 4.164063-3.402344 7.527344-7.558594 7.527344zm0 0" fill="#fed370"/><path d="m90.945312 256.273438c-.011718 0-.023437 0-.035156 0h-.109375c-4.171875-.019532-7.542969-3.417969-7.523437-7.59375.019531-4.160157 3.398437-7.523438 7.558594-7.523438h.03125.109374c4.175782.019531 7.542969 3.417969 7.527344 7.59375-.019531 4.160156-3.402344 7.523438-7.558594 7.523438zm0 0" fill="#5100cb"/><path d="m73.917969 288.597656c-.011719 0-.023438 0-.035157 0h-.109374c-4.171876-.019531-7.542969-3.417968-7.523438-7.59375.019531-4.164062 3.398438-7.523437 7.558594-7.523437h.03125.109375c4.175781.015625 7.542969 3.417969 7.527343 7.589843-.019531 4.164063-3.402343 7.527344-7.558593 7.527344zm0 0" fill="#6163aa"/><path d="m128.632812 152.683594c-.007812 0-.023437 0-.03125 0l-.109374-.003906c-4.175782-.019532-7.542969-3.417969-7.527344-7.589844.019531-4.164063 3.398437-7.527344 7.558594-7.527344h.035156.109375c4.171875.019531 7.542969 3.417969 7.523437 7.59375-.015625 4.164062-3.398437 7.527344-7.558594 7.527344zm0 0" fill="#2500ad"/><path d="m445.734375 418.84375c0 28.976562-23.492187 52.46875-52.46875 52.46875-10.289063 0-19.882813-2.964844-27.976563-8.074219-4.304687-2.71875-8.183593-6.046875-11.519531-9.855469-8.074219-9.234374-12.96875-21.316406-12.96875-34.539062 0-28.976562 23.480469-52.464844 52.464844-52.464844.804687 0 1.601563.019532 2.398437.058594 6.179688.273438 12.074219 1.621094 17.515626 3.859375 19.097656 7.84375 32.554687 26.628906 32.554687 48.546875zm0 0" fill="#fda736"/><path d="m445.730469 418.84375c0 28.980469-23.488281 52.46875-52.46875 52.46875-5.285157 0-10.378907-.777344-15.183594-2.230469 21.585937-6.503906 37.300781-26.53125 37.300781-50.238281 0-23.703125-15.714844-43.734375-37.300781-50.238281 4.804687-1.453125 9.898437-2.230469 15.183594-2.230469 28.980469 0 52.46875 23.492188 52.46875 52.46875zm0 0" fill="#fd8f07"/><g fill="#fed370"><path d="m150.234375 57.804688c0 35.542968-29.003906 64.546874-64.546875 64.546874-22.605469 0-42.496094-11.621093-54.023438-29.214843-.738281-1.128907.449219-2.515625 1.671876-1.949219 8.257812 3.839844 17.460937 5.984375 27.171874 5.984375 35.746094 0 64.542969-28.800781 64.542969-64.546875 0-9.710938-2.144531-18.914062-5.980469-27.171875-.570312-1.222656.820313-2.410156 1.945313-1.671875 17.597656 11.527344 29.21875 31.417969 29.21875 54.023438zm0 0"/><path d="m458.835938 493.738281c-1.945313 0-3.886719-.746093-5.363282-2.230469l-7.863281-7.910156c-2.941406-2.960937-2.929687-7.746094.03125-10.6875 2.960937-2.945312 7.746094-2.929687 10.6875.03125l7.867187 7.910156c2.941407 2.957032 2.929688 7.746094-.03125 10.6875-1.476562 1.46875-3.402343 2.199219-5.328124 2.199219zm0 0"/><path d="m477.257812 466.511719c-.65625 0-1.320312-.085938-1.984374-.265625l-10.765626-2.917969c-4.027343-1.09375-6.410156-5.246094-5.316406-9.273437 1.09375-4.03125 5.246094-6.410157 9.273438-5.320313l10.765625 2.917969c4.027343 1.09375 6.410156 5.246094 5.316406 9.273437-.910156 3.367188-3.960937 5.585938-7.289063 5.585938zm0 0"/><path d="m431.492188 512c-3.347657 0-6.40625-2.238281-7.300782-5.625l-2.855468-10.785156c-1.070313-4.035156 1.335937-8.171875 5.371093-9.242188 4.035157-1.066406 8.171875 1.339844 9.242188 5.375l2.855469 10.78125c1.070312 4.035156-1.335938 8.171875-5.371094 9.242188-.648438.171875-1.300782.253906-1.941406.253906zm0 0"/><path d="m392.851562 435.675781-27.5625 27.5625c-4.304687-2.71875-8.183593-6.046875-11.519531-9.855469l28.402344-28.398437c2.953125-2.953125 7.726563-2.953125 10.679687 0 2.953126 2.953125 2.953126 7.738281 0 10.691406zm0 0"/><path d="m413.179688 370.296875-23.835938 23.835937c-1.46875 1.472657-3.40625 2.21875-5.339844 2.21875s-3.871094-.746093-5.351562-2.21875c-2.953125-2.953124-2.953125-7.738281 0-10.691406l17.011718-17.003906c6.179688.273438 12.074219 1.625 17.515626 3.859375zm0 0"/></g></svg>