<?xml version="1.0" encoding="iso-8859-1"?>
<!-- Generator: Adobe Illustrator 19.0.0, SVG Export Plug-In . SVG Version: 6.00 Build 0)  -->
<svg version="1.1" id="Capa_1" xmlns="http://www.w3.org/2000/svg" xmlns:xlink="http://www.w3.org/1999/xlink" x="0px" y="0px"
	 viewBox="0 0 58 58" style="enable-background:new 0 0 58 58;" xml:space="preserve">
<g>
	<path style="fill:#F0C419;" d="M20,2c-0.552,0-1,0.447-1,1v3c0,0.553,0.448,1,1,1s1-0.447,1-1V3C21,2.447,20.552,2,20,2z"/>
	<path style="fill:#F0C419;" d="M20,51c-0.552,0-1,0.447-1,1v3c0,0.553,0.448,1,1,1s1-0.447,1-1v-3C21,51.447,20.552,51,20,51z"/>
	<path style="fill:#F0C419;" d="M3.029,44.557l-2.121,2.121c-0.391,0.391-0.391,1.023,0,1.414c0.195,0.195,0.451,0.293,0.707,0.293
		s0.512-0.098,0.707-0.293l2.121-2.121c0.391-0.391,0.391-1.023,0-1.414S3.42,44.166,3.029,44.557z"/>
	<path style="fill:#F0C419;" d="M2.322,9.908c-0.391-0.391-1.023-0.391-1.414,0s-0.391,1.023,0,1.414l2.121,2.121
		c0.195,0.195,0.451,0.293,0.707,0.293s0.512-0.098,0.707-0.293c0.391-0.391,0.391-1.023,0-1.414L2.322,9.908z"/>
	<path style="fill:#F0C419;" d="M26.988,2.92c-0.531-0.144-1.082,0.174-1.225,0.707l-0.777,2.898
		c-0.143,0.533,0.173,1.082,0.707,1.225c0.086,0.023,0.174,0.034,0.259,0.034c0.441,0,0.846-0.294,0.965-0.741l0.777-2.898
		C27.838,3.611,27.522,3.063,26.988,2.92z"/>
	<path style="fill:#F0C419;" d="M14.306,50.25c-0.532-0.144-1.082,0.173-1.225,0.707l-0.777,2.898
		c-0.143,0.533,0.173,1.082,0.707,1.225c0.086,0.023,0.174,0.034,0.259,0.034c0.441,0,0.846-0.294,0.965-0.741l0.777-2.898
		C15.156,50.941,14.84,50.393,14.306,50.25z"/>
	<path style="fill:#F0C419;" d="M26.918,50.957c-0.143-0.534-0.69-0.852-1.225-0.707c-0.534,0.143-0.85,0.691-0.707,1.225
		l0.777,2.898c0.12,0.447,0.524,0.741,0.965,0.741c0.085,0,0.173-0.011,0.259-0.034c0.534-0.143,0.85-0.691,0.707-1.225
		L26.918,50.957z"/>
	<path style="fill:#F0C419;" d="M14.236,3.627c-0.143-0.534-0.692-0.852-1.225-0.707c-0.534,0.143-0.85,0.691-0.707,1.225
		l0.777,2.898c0.12,0.447,0.524,0.741,0.965,0.741c0.085,0,0.173-0.011,0.259-0.034c0.534-0.143,0.85-0.691,0.707-1.225
		L14.236,3.627z"/>
	<path style="fill:#F0C419;" d="M32.366,48.419c-0.277-0.479-0.889-0.643-1.366-0.366c-0.479,0.276-0.642,0.888-0.366,1.366
		l1.5,2.598c0.186,0.321,0.521,0.5,0.867,0.5c0.169,0,0.342-0.043,0.499-0.134c0.479-0.276,0.642-0.888,0.366-1.366L32.366,48.419z"
		/>
	<path style="fill:#F0C419;" d="M7.866,5.983C7.59,5.504,6.978,5.341,6.5,5.617C6.021,5.894,5.858,6.505,6.134,6.983l1.5,2.598
		c0.186,0.321,0.521,0.5,0.867,0.5c0.169,0,0.342-0.043,0.499-0.134C9.479,9.671,9.642,9.06,9.366,8.581L7.866,5.983z"/>
	<path style="fill:#F0C419;" d="M31,9.947c0.157,0.091,0.33,0.134,0.499,0.134c0.346,0,0.682-0.179,0.867-0.5l1.5-2.598
		c0.276-0.479,0.112-1.09-0.366-1.366c-0.479-0.276-1.09-0.113-1.366,0.366l-1.5,2.598C30.358,9.06,30.521,9.671,31,9.947z"/>
	<path style="fill:#F0C419;" d="M9,48.053c-0.479-0.276-1.09-0.113-1.366,0.366l-1.5,2.598c-0.276,0.479-0.112,1.09,0.366,1.366
		c0.157,0.091,0.33,0.134,0.499,0.134c0.346,0,0.682-0.179,0.867-0.5l1.5-2.598C9.642,48.94,9.479,48.329,9,48.053z"/>
</g>
<path style="fill:#F0C419;" d="M18,29c0-7.805,4.48-14.547,11-17.843C26.292,9.788,23.241,9,20,9C8.954,9,0,17.954,0,29
	c0,11.046,8.954,20,20,20c3.241,0,6.292-0.788,9-2.157C22.48,43.547,18,36.804,18,29z"/>
<g>
	<circle style="fill:#F29C1F;" cx="16" cy="20" r="1"/>
	<circle style="fill:#F29C1F;" cx="20" cy="20" r="1"/>
	<circle style="fill:#F29C1F;" cx="18" cy="18" r="1"/>
	<circle style="fill:#F29C1F;" cx="20" cy="16" r="1"/>
	<circle style="fill:#F29C1F;" cx="22" cy="14" r="1"/>
	<circle style="fill:#F29C1F;" cx="24" cy="12" r="1"/>
	<circle style="fill:#F29C1F;" cx="20" cy="12" r="1"/>
	<circle style="fill:#F29C1F;" cx="18" cy="14" r="1"/>
	<circle style="fill:#F29C1F;" cx="18" cy="22" r="1"/>
	<circle style="fill:#F29C1F;" cx="14" cy="26" r="1"/>
	<circle style="fill:#F29C1F;" cx="16" cy="24" r="1"/>
	<circle style="fill:#F29C1F;" cx="18" cy="26" r="1"/>
	<circle style="fill:#F29C1F;" cx="16" cy="28" r="1"/>
	<circle style="fill:#F29C1F;" cx="14" cy="30" r="1"/>
	<circle style="fill:#F29C1F;" cx="16" cy="32" r="1"/>
	<circle style="fill:#F29C1F;" cx="16" cy="36" r="1"/>
	<circle style="fill:#F29C1F;" cx="18" cy="34" r="1"/>
	<circle style="fill:#F29C1F;" cx="18" cy="30" r="1"/>
	<circle style="fill:#F29C1F;" cx="18" cy="38" r="1"/>
	<circle style="fill:#F29C1F;" cx="16" cy="40" r="1"/>
	<circle style="fill:#F29C1F;" cx="18" cy="42" r="1"/>
	<circle style="fill:#F29C1F;" cx="20" cy="40" r="1"/>
	<circle style="fill:#F29C1F;" cx="20" cy="44" r="1"/>
	<circle style="fill:#F29C1F;" cx="22" cy="42" r="1"/>
	<circle style="fill:#F29C1F;" cx="22" cy="46" r="1"/>
	<circle style="fill:#F29C1F;" cx="26" cy="46" r="1"/>
	<circle style="fill:#F29C1F;" cx="24" cy="44" r="1"/>
</g>
<circle style="fill:#BDC3C7;" cx="38" cy="29" r="20"/>
<path style="fill:#E6E6E6;" d="M38,9c-0.478,0-0.945,0.039-1.414,0.071C31.909,13.614,29,19.966,29,27
	c0,9.268,5.047,17.351,12.538,21.669C50.893,46.996,58,38.836,58,29C58,17.954,49.046,9,38,9z"/>
<circle style="fill:#95A5A5;" cx="33" cy="32" r="1"/>
<circle style="fill:#95A5A5;" cx="46" cy="17" r="1"/>
<circle style="fill:#95A5A5;" cx="47" cy="34" r="1"/>
<circle style="fill:#95A5A5;" cx="28.5" cy="20.5" r="2.5"/>
<path style="fill:#95A5A5;" d="M52,27.5c0,3.038,2.462,5.5,5.5,5.5c0.033,0,0.066-0.004,0.099-0.005C57.861,31.704,58,30.368,58,29
	c0-2.444-0.46-4.776-1.263-6.941C54.062,22.431,52,24.722,52,27.5z"/>
<path style="fill:#95A5A5;" d="M42.5,43c-2.485,0-4.5,2.015-4.5,4.5c0,0.524,0.107,1.019,0.271,1.486
	c3.115-0.042,6.05-0.802,8.666-2.113C46.629,44.688,44.771,43,42.5,43z"/>
<g>
</g>
<g>
</g>
<g>
</g>
<g>
</g>
<g>
</g>
<g>
</g>
<g>
</g>
<g>
</g>
<g>
</g>
<g>
</g>
<g>
</g>
<g>
</g>
<g>
</g>
<g>
</g>
<g>
</g>
</svg>
