<svg height="512pt" viewBox="-10 0 512 512.00071" width="512pt" xmlns="http://www.w3.org/2000/svg"><path d="m138.109375 432.878906c-1.988281 1.9375-2.890625 4.722656-2.417969 7.449219l7.144532 41.6875c1.179687 6.867187-6.035157 12.109375-12.210938 8.871094l-37.425781-19.679688c-2.460938-1.296875-5.386719-1.296875-7.835938 0l-37.429687 19.679688c-6.179688 3.238281-13.390625-2.003907-12.210938-8.871094l1.050782-6.136719 6.09375-35.550781c.46875-2.726563-.4375-5.515625-2.425782-7.449219l-30.28125-29.515625c-4.992187-4.867187-2.238281-13.347656 4.671875-14.359375l41.84375-6.074218c2.746094-.398438 5.109375-2.121094 6.339844-4.605469l18.71875-37.925781c3.078125-6.25 12-6.25 15.089844 0l18.71875 37.925781c1.21875 2.484375 3.59375 4.207031 6.335937 4.605469l12.933594 1.875 28.910156 4.199218c6.902344 1.011719 9.664063 9.496094 4.664063 14.359375zm0 0" fill="#fed370"/><path d="m138.109375 432.878906c-1.988281 1.9375-2.890625 4.722656-2.417969 7.449219l7.144532 41.6875c1.179687 6.867187-6.035157 12.109375-12.210938 8.871094l-37.425781-19.679688c-2.460938-1.296875-5.386719-1.296875-7.835938 0l-37.429687 19.679688c-6.179688 3.238281-13.390625-2.003907-12.210938-8.871094l1.050782-6.136719c65.605468-27.984375 90.046874-62.972656 98.042968-91.074218l28.910156 4.199218c6.898438 1.011719 9.660157 9.496094 4.660157 14.359375zm0 0" fill="#fda736"/><path d="m122.699219 214.59375c-1.554688 1.511719-2.257813 3.6875-1.890625 5.820312l5.585937 32.578126c.921875 5.371093-4.714843 9.46875-9.546875 6.933593l-29.25-15.378906c-1.921875-1.011719-4.210937-1.011719-6.125 0l-29.253906 15.378906c-4.828125 2.535157-10.464844-1.566406-9.542969-6.933593l.820313-4.792969 4.761718-27.785157c.371094-2.132812-.339843-4.308593-1.890624-5.820312l-23.667969-23.070312c-3.902344-3.800782-1.75-10.433594 3.648437-11.222657l32.707032-4.75c2.144531-.308593 3.992187-1.65625 4.953124-3.597656l14.628907-29.640625c2.410156-4.886719 9.378906-4.886719 11.792969 0l14.632812 29.640625c.953125 1.941406 2.808594 3.289063 4.953125 3.597656l10.109375 1.46875 22.59375 3.28125c5.394531.789063 7.554688 7.421875 3.644531 11.222657zm0 0" fill="#fed370"/><path d="m122.699219 214.59375c-1.554688 1.511719-2.257813 3.6875-1.890625 5.820312l5.585937 32.578126c.921875 5.371093-4.714843 9.46875-9.546875 6.933593l-29.25-15.378906c-1.921875-1.011719-4.210937-1.011719-6.125 0l-29.253906 15.378906c-4.828125 2.535157-10.464844-1.566406-9.542969-6.933593l.820313-4.792969c51.277344-21.871094 70.378906-49.21875 76.628906-71.179688l22.59375 3.28125c5.394531.789063 7.554688 7.417969 3.644531 11.222657zm0 0" fill="#fda736"/><path d="m280 476.585938c-1.195312 1.160156-1.734375 2.835937-1.453125 4.472656l4.292969 25.027344c.707031 4.121093-3.625 7.269531-7.332032 5.324218l-22.472656-11.8125c-1.476562-.777344-3.234375-.777344-4.703125 0l-22.472656 11.8125c-3.707031 1.945313-8.039063-1.203125-7.332031-5.324218l.632812-3.683594 3.660156-21.34375c.28125-1.636719-.265624-3.3125-1.457031-4.472656l-18.179687-17.722657c-2.996094-2.921875-1.34375-8.011719 2.804687-8.621093l25.121094-3.644532c1.648437-.238281 3.066406-1.273437 3.804687-2.765625l11.238282-22.769531c1.851562-3.753906 7.207031-3.753906 9.0625 0l11.238281 22.769531c.730469 1.492188 2.15625 2.527344 3.804687 2.765625l7.765626 1.125 17.355468 2.519532c4.144532.609374 5.800782 5.703124 2.800782 8.621093zm0 0" fill="#fed370"/><path d="m280 476.585938c-1.195312 1.160156-1.734375 2.835937-1.453125 4.472656l4.292969 25.027344c.707031 4.121093-3.625 7.269531-7.332032 5.324218l-22.472656-11.8125c-1.476562-.777344-3.234375-.777344-4.703125 0l-22.472656 11.8125c-3.707031 1.945313-8.039063-1.203125-7.332031-5.324218l.632812-3.683594c39.386719-16.800782 54.0625-37.808594 58.863282-54.679688l17.355468 2.519532c4.144532.605468 5.800782 5.699218 2.800782 8.621093zm0 0" fill="#fda736"/><path d="m364.539062 126.746094c-1.945312 0-3.894531-.742188-5.382812-2.226563-2.972656-2.972656-2.972656-7.792969 0-10.765625l111.527344-111.523437c2.972656-2.972657 7.792968-2.972657 10.765625 0 2.972656 2.96875 2.972656 7.789062 0 10.761719l-111.527344 111.527343c-1.484375 1.484375-3.433594 2.226563-5.382813 2.226563zm0 0" fill="#fda736"/><path d="m144.128906 347.160156c-1.949218 0-3.894531-.742187-5.382812-2.230468-2.972656-2.96875-2.972656-7.789063 0-10.761719l109.542968-109.546875c2.972657-2.972656 7.792969-2.96875 10.765626 0 2.972656 2.972656 2.972656 7.792968 0 10.765625l-109.542969 109.542969c-1.488281 1.488281-3.433594 2.230468-5.382813 2.230468zm0 0" fill="#fda736"/><path d="m185.148438 354.675781c-1.949219 0-3.894532-.742187-5.382813-2.226562-2.972656-2.972657-2.972656-7.792969 0-10.765625l49.71875-49.71875c2.972656-2.972656 7.792969-2.972656 10.765625 0s2.972656 7.792968 0 10.765625l-49.71875 49.71875c-1.488281 1.484375-3.4375 2.226562-5.382812 2.226562zm0 0" fill="#fed370"/><path d="m343.398438 317.636719c-1.945313 0-3.894532-.742188-5.382813-2.226563-2.972656-2.972656-2.972656-7.792968 0-10.765625l141.546875-141.546875c2.972656-2.972656 7.792969-2.972656 10.765625 0s2.972656 7.792969 0 10.761719l-141.546875 141.550781c-1.488281 1.484375-3.433594 2.226563-5.382812 2.226563zm0 0" fill="#fda736"/><path d="m281.351562 379.683594c-1.949218 0-3.894531-.742188-5.382812-2.226563-2.972656-2.972656-2.972656-7.792969 0-10.765625l36.363281-36.363281c2.972657-2.972656 7.792969-2.96875 10.765625 0 2.972656 2.972656 2.972656 7.792969 0 10.765625l-36.363281 36.363281c-1.488281 1.484375-3.433594 2.226563-5.382813 2.226563zm0 0" fill="#fda736"/><path d="m169.417969 221.324219c-1.949219 0-3.898438-.742188-5.382813-2.226563-2.972656-2.972656-2.972656-7.792968 0-10.765625l24.035156-24.035156c2.972657-2.972656 7.792969-2.972656 10.761719 0 2.972657 2.972656 2.972657 7.792969 0 10.765625l-24.035156 24.035156c-1.484375 1.484375-3.433594 2.226563-5.378906 2.226563zm0 0" fill="#fda736"/><path d="m268.140625 75.773438c-1.949219 0-3.898437-.742188-5.382813-2.226563-2.972656-2.972656-2.972656-7.792969 0-10.765625l33.878907-33.882812c2.976562-2.972657 7.792969-2.972657 10.765625 0 2.972656 2.972656 2.972656 7.792968 0 10.765624l-33.878906 33.882813c-1.488282 1.484375-3.4375 2.226563-5.382813 2.226563zm0 0" fill="#fda736"/><path d="m169.417969 174.496094c-1.949219 0-3.898438-.742188-5.382813-2.226563-2.972656-2.972656-2.972656-7.792969 0-10.765625l75.617188-75.613281c2.96875-2.972656 7.789062-2.972656 10.761718 0 2.972657 2.96875 2.972657 7.789063 0 10.761719l-75.613281 75.617187c-1.488281 1.484375-3.4375 2.226563-5.382812 2.226563zm0 0" fill="#fda736"/><path d="m148.359375 129.820312c-1.945313 0-3.894531-.742187-5.382813-2.226562-2.972656-2.972656-2.972656-7.792969 0-10.765625l35.34375-35.34375c2.972657-2.96875 7.792969-2.96875 10.765626 0 2.972656 2.972656 2.972656 7.792969 0 10.765625l-35.34375 35.34375c-1.484376 1.484375-3.433594 2.226562-5.382813 2.226562zm0 0" fill="#fda736"/><path d="m328.503906 173.40625c-1.046875 1.019531-1.523437 2.488281-1.273437 3.921875l3.765625 21.964844c.621094 3.617187-3.179688 6.382812-6.4375 4.675781l-19.71875-10.371094c-1.292969-.683594-2.835938-.683594-4.128906 0l-19.71875 10.371094c-3.253907 1.707031-7.054688-1.058594-6.433594-4.675781l.554687-3.234375 3.210938-18.730469c.246093-1.4375-.234375-2.902344-1.277344-3.921875l-15.957031-15.550781c-2.628906-2.566407-1.179688-7.035157 2.460937-7.566407l22.046875-3.203124c1.449219-.207032 2.695313-1.117188 3.339844-2.425782l9.863281-19.980468c1.621094-3.292969 6.324219-3.292969 7.949219 0l9.863281 19.980468c.644531 1.308594 1.894531 2.21875 3.339844 2.425782l6.816406.988281 15.230469 2.214843c3.636719.53125 5.089844 5 2.457031 7.566407zm0 0" fill="#fed370"/><path d="m328.503906 173.40625c-1.046875 1.019531-1.523437 2.488281-1.273437 3.921875l3.765625 21.964844c.621094 3.617187-3.179688 6.382812-6.4375 4.675781l-19.71875-10.371094c-1.292969-.683594-2.835938-.683594-4.128906 0l-19.71875 10.371094c-3.253907 1.707031-7.054688-1.058594-6.433594-4.675781l.554687-3.234375c34.566407-14.742188 47.441407-33.175782 51.65625-47.984375l15.230469 2.214843c3.636719.53125 5.089844 5 2.457031 7.566407zm0 0" fill="#fda736"/><path d="m310.03125 415.800781c-1.945312 0-3.894531-.742187-5.382812-2.226562-2.972657-2.972657-2.972657-7.792969 0-10.765625l43.582031-43.582032c2.972656-2.96875 7.789062-2.96875 10.765625 0 2.96875 2.972657 2.96875 7.792969 0 10.765626l-43.582032 43.582031c-1.484374 1.484375-3.433593 2.226562-5.382812 2.226562zm0 0" fill="#fda736"/><g fill="#fed370"><path d="m325.964844 285.007812c-1.949219 0-3.898438-.742187-5.382813-2.230468-2.972656-2.96875-2.972656-7.789063 0-10.761719l17.433594-17.4375c2.972656-2.96875 7.792969-2.96875 10.765625 0 2.972656 2.972656 2.972656 7.792969 0 10.765625l-17.4375 17.433594c-1.484375 1.488281-3.433594 2.230468-5.378906 2.230468zm0 0"/><path d="m431.03125 94.476562c-1.949219 0-3.898438-.742187-5.386719-2.226562-2.96875-2.972656-2.96875-7.792969 0-10.765625l20.882813-20.878906c2.972656-2.972657 7.792968-2.972657 10.765625 0 2.96875 2.972656 2.96875 7.792969 0 10.761719l-20.882813 20.882812c-1.484375 1.484375-3.433594 2.226562-5.378906 2.226562zm0 0"/><path d="m104.035156 71.851562c-.011718 0-.023437 0-.039062 0-4.203125-.023437-7.59375-3.445312-7.574219-7.648437l.011719-2.65625c.019531-4.203125 3.417968-7.625 7.648437-7.574219 4.203125.019532 7.59375 3.441406 7.574219 7.644532l-.011719 2.65625c-.019531 4.191406-3.421875 7.578124-7.609375 7.578124zm0 0"/><path d="m103.953125 98.882812c-.015625 0-.027344 0-.039063 0-4.203124-.019531-7.59375-3.445312-7.574218-7.648437l.011718-2.65625c.019532-4.191406 3.425782-7.574219 7.613282-7.574219h.035156c4.207031.019532 7.597656 3.445313 7.574219 7.648438l-.011719 2.65625c-.019531 4.191406-3.425781 7.574218-7.609375 7.574218zm0 0"/><path d="m118.84375 84.085938c-.011719 0-.023438 0-.039062 0l-2.652344-.011719c-4.207032-.019531-7.597656-3.445313-7.578125-7.648438.019531-4.191406 3.425781-7.574219 7.609375-7.574219h.039062l2.65625.011719c4.203125.019531 7.59375 3.445313 7.574219 7.648438-.019531 4.191406-3.421875 7.574219-7.609375 7.574219zm0 0"/><path d="m91.808594 84.003906c-.011719 0-.023438 0-.035156 0l-2.65625-.015625c-4.203126-.019531-7.597657-3.441406-7.574219-7.648437.019531-4.191406 3.425781-7.574219 7.609375-7.574219h.039062l2.65625.015625c4.203125.019531 7.59375 3.445312 7.574219 7.648438-.019531 4.1875-3.425781 7.574218-7.613281 7.574218zm0 0"/></g><path d="m22.492188 308.285156c-.011719 0-.023438 0-.035157 0-4.207031-.019531-7.597656-3.445312-7.574219-7.648437l.011719-2.65625c.019531-4.203125 3.476563-7.613281 7.648438-7.574219 4.203125.019531 7.59375 3.445312 7.574219 7.648438l-.011719 2.65625c-.023438 4.191406-3.425781 7.574218-7.613281 7.574218zm0 0" fill="#fda736"/><path d="m22.410156 335.320312c-.011718 0-.023437 0-.035156 0-4.207031-.019531-7.597656-3.445312-7.578125-7.648437l.011719-2.65625c.019531-4.203125 3.421875-7.585937 7.648437-7.574219 4.203125.019532 7.59375 3.441406 7.574219 7.644532l-.011719 2.65625c-.019531 4.191406-3.421875 7.578124-7.609375 7.578124zm0 0" fill="#fda736"/><path d="m37.300781 320.523438c-.011719 0-.023437 0-.035156 0l-2.65625-.011719c-4.203125-.023438-7.597656-3.445313-7.574219-7.652344.019532-4.203125 3.449219-7.632813 7.648438-7.574219l2.65625.015625c4.203125.019531 7.59375 3.445313 7.574218 7.648438-.019531 4.191406-3.425781 7.574219-7.613281 7.574219zm0 0" fill="#fda736"/><path d="m10.269531 320.4375c-.011719 0-.023437 0-.035156 0l-2.65625-.011719c-4.207031-.019531-7.5976562-3.441406-7.578125-7.644531.0195312-4.207031 3.449219-7.609375 7.648438-7.578125l2.65625.011719c4.203124.019531 7.59375 3.445312 7.574218 7.648437-.019531 4.191407-3.421875 7.574219-7.609375 7.574219zm0 0" fill="#fda736"/><path d="m403.761719 399.421875c-.011719 0-.019531 0-.035157 0-4.203124-.019531-7.59375-3.441406-7.574218-7.644531l.011718-2.65625c.015626-4.191406 3.421876-7.578125 7.609376-7.578125h.035156c4.203125.019531 7.597656 3.441406 7.578125 7.648437l-.011719 2.65625c-.019531 4.1875-3.425781 7.574219-7.613281 7.574219zm0 0" fill="#fed370"/><path d="m403.679688 426.453125c-.011719 0-.023438 0-.039063 0-4.203125-.019531-7.59375-3.441406-7.574219-7.648437l.011719-2.65625c.023437-4.1875 3.425781-7.574219 7.613281-7.574219h.035156c4.207032.023437 7.597657 3.445312 7.578126 7.652343l-.015626 2.65625c-.019531 4.1875-3.421874 7.570313-7.609374 7.570313zm0 0" fill="#fed370"/><path d="m418.574219 411.660156c-.015625 0-.027344 0-.039063 0l-2.65625-.011718c-4.203125-.019532-7.59375-3.445313-7.574218-7.648438.019531-4.191406 3.421874-7.574219 7.609374-7.574219h.039063l2.65625.011719c4.199219.019531 7.59375 3.441406 7.574219 7.644531-.019532 4.191407-3.425782 7.578125-7.609375 7.578125zm0 0" fill="#fed370"/><path d="m391.539062 411.574219c-.011718 0-.023437 0-.039062 0l-2.65625-.011719c-4.203125-.019531-7.59375-3.445312-7.574219-7.648438.023438-4.191406 3.425781-7.574218 7.613281-7.574218h.035157l2.65625.011718c4.207031.019532 7.597656 3.445313 7.578125 7.648438-.023438 4.191406-3.425782 7.574219-7.613282 7.574219zm0 0" fill="#fed370"/></svg>