<svg height="512pt" viewBox="-17 0 512 512.00101" width="512pt" xmlns="http://www.w3.org/2000/svg"><g fill="#ffebff"><path d="m460.820312 129.539062c-28.910156-39.929687-70.296874-68.507812-118.578124-81.445312-55.613282-14.90625-113.691407-7.25-163.546876 21.535156-64.082031 36.996094-86.117187 119.234375-49.121093 183.316406 17.308593 29.976563 48.808593 46.753907 81.160156 46.753907 15.855469 0 31.914063-4.035157 46.609375-12.519531 1.738281-1 2.484375-3.128907 1.753906-5.003907-.730468-1.867187-2.683594-2.945312-4.6875-2.476562-22.753906 5.167969-46.09375 1.015625-59.601562-17.699219-18.960938-26.257812-22.886719-75.339844-6.558594-102.40625 33.640625-55.726562 88.390625-61.671875 108.722656-61.925781 1.265625-.015625 4.746094-2 6-2 101.613282 0 161.457032 51.550781 162.085938 52.082031zm0 0"/><path d="m391.726562 202.566406c-25.210937-25.488281-58.832031-39.640625-94.679687-39.839844-.179687 0-.355469 0-.53125 0-51.332031 0-93.238281 41.609376-93.523437 93-.007813 2.007813 1.445312 3.726563 3.429687 4.042969 2.046875.328125 3.90625-.875 4.511719-2.796875 7.035156-22.230468 21.886718-42.765625 44.875-44.972656 32.375-3.136719 72.382812 15.738281 87.5 43.5 31.117187 57.15625 15.539062 113.320312 5.5 131-51.296875 90.300781-126.382813 118.554688-127.167969 118.832031l15.089844 5.574219c108.140625-10.902344 193.136719-102.148438 193.765625-213.226562.199218-35.84375-13.566406-69.625-38.769532-95.113282zm0 0"/><path d="m257.019531 224.367188c-1.734375-.992188-3.964843-.5625-5.203125 1.019531-1.246094 1.582031-1.152344 3.835937.230469 5.296875 15.949219 17.011718 22.320313 37.679687 13.011719 58.816406-12.949219 29.378906-50.347656 57.5-81.75 57.5-.273438 0 .269531 0 0 0-65.078125-.808594-102.984375-41.589844-113.5-59-53.6875-88.910156-39.976563-171.230469-39.835938-172.054688l-12.066406 13.082032c-19.65625 45.035156-23.300781 95.042968-10.078125 143.078125 15.28125 55.503906 51.273437 101.730469 101.328125 130.171875 20.484375 11.644531 43.144531 17.578125 66.082031 17.578125 11.960938 0 23.996094-1.613281 35.839844-4.867188 34.566406-9.523437 63.351563-31.921875 81.054687-63.089843 25.480469-44.84375 9.722657-102.050782-35.113281-127.53125zm0 0"/></g><path d="m471.503906 243.019531c-14.566406-55.707031-49.960937-102.382812-99.648437-131.464843-63.859375-37.375-146.226563-15.824219-183.605469 48.039062-17.480469 29.871094-16.46875 65.546875-.460938 93.660156 7.84375 13.773438 19.296876 25.734375 33.941407 34.304688 1.730469 1.015625 3.949219.613281 5.21875-.949219 1.257812-1.558594 1.230469-3.792969-.167969-5.300781-15.753906-17.214844-22.550781-38.269532-12.976562-59.269532 13.4375-29.472656 52.160156-56.835937 83.765624-56.039062 65.070313 1.652344 99.058594 44.683594 109.34375 62.226562 0 0-.003906-.007812 0 0 .636719 1.089844 1.269532 2.183594 1.890626 3.273438 50.285156 88.296875 35.320312 170.023438 35.167968 170.832031l15.425782-15.941406c20.398437-44.886719 24.757812-95.007813 12.105468-143.371094zm0 0" fill="#edf4ff"/><path d="m441.5 403.628906c-.359375 1.949219.71875 3.878906 2.574219 4.566406 1.847656.695313 3.929687-.042968 4.929687-1.757812 3.839844-6.558594 7.292969-13.222656 10.394532-20.046875 1.40625-30.988281-1.679688-93.675781-39.496094-160.082031l-1.996094-3.457032c-11.65625-19.890624-46.675781-66.34375-119.925781-68.207031-38.261719-.964843-79.335938 25.105469-95.539063 60.648438-8.546875 18.730469-8.960937 38.003906-1.65625 55.40625 6.019532 6.4375 12.960938 12.1875 20.945313 16.859375 1.730469 1.015625 3.953125.613281 5.21875-.949219 1.257812-1.558594 1.230469-3.792969-.167969-5.300781-15.753906-17.214844-19.113281-38.269532-9.539062-59.273438 13.433593-29.46875 48.726562-51.921875 80.328124-51.128906 65.074219 1.652344 96.019532 42.628906 106.304688 60.171875 0 0 0 0 .003906.007813.636719 1.089843 1.269532 2.183593 1.890625 3.273437 50.28125 88.296875 35.882813 168.460937 35.730469 169.269531zm0 0" fill="#dbeaff"/><path d="m349.527344 260.472656c-.089844-.15625-.175782-.308594-.261719-.460937-25.402344-44.609375-82.300781-60.433594-127.101563-35.25-1.75.988281-2.519531 3.101562-1.8125 4.984375.730469 1.941406 2.691407 2.960937 4.660157 2.535156 22.800781-4.886719 44.5.335938 57.796875 19.21875 18.746094 26.578125 25.964844 73.527344 9.324218 100.398438-34.265624 55.324218-91.992187 66.078124-112.324218 66.101562-103.855469.113281-165.871094-52.953125-166.5-53.5l3.804687 15.855469c62.992188 88.578125 184.347657 117.289062 281.179688 62.863281 31.246093-17.566406 53.789062-46.242188 63.46875-80.757812 9.671875-34.519532 5.332031-70.738282-12.234375-101.988282zm0 0" fill="#edf4ff"/><path d="m298.390625 357.691406c20.15625-32.554687 18.34375-81.117187-4.101563-113.082031-11.972656-16.996094-28.667968-26.960937-47.621093-29.320313-8.378907 1.960938-16.632813 5.050782-24.503907 9.472657-1.75.988281-2.519531 3.101562-1.8125 4.984375.730469 1.941406 2.691407 2.960937 4.660157 2.535156 22.800781-4.886719 42.679687 2.816406 55.976562 21.695312 18.746094 26.582032 20.214844 68.277344 3.574219 95.148438-34.269531 55.324219-85.269531 61.363281-105.601562 61.390625-103.855469.113281-167.316407-54.089844-167.945313-54.636719-1.492187-1.300781-3.707031-1.335937-5.234375-.089844-1.859375 1.507813-1.574219 4.113282-.378906 6.210938 3.636718 6.378906 7.542968 12.496094 11.710937 18.355469 26.371094 17.21875 82.789063 46.515625 161.867188 46.425781 23.054687-.03125 80.84375-6.816406 119.410156-69.089844zm0 0" fill="#dbeaff"/><path d="m272.695312 252.175781c-1.992187-.300781-3.90625.898438-4.492187 2.820313-6.890625 22.28125-23.332031 41.632812-46.304687 44.003906-31.9375 3.289062-76.78125-21.21875-92.324219-48.507812-.132813-.234376.136719-.472657 0-.710938-31.5-56.945312-12.203125-104.375-2.277344-122.128906 50.695313-90.648438 129.011719-119.472656 129.800781-119.757813l-16.488281-6.65625c-48.835937 5.214844-94.074219 26.792969-129.253906 62.039063-40.667969 40.746094-63.027344 94.898437-62.976563 152.46875.019532 23.5625 6.078125 46.191406 17.429688 66.121094 5.917968 10.394531 13.273437 20.054687 21.964844 28.734374 25.382812 25.324219 59.089843 39.253907 94.933593 39.214844 51.578125-.050781 93.492188-42.050781 93.445313-93.625.003906-1.996094-1.472656-3.722656-3.457032-4.015625zm0 0" fill="#edf4ff"/><path d="m276.152344 256.191406c.003906-1.996094-1.472656-3.722656-3.457032-4.015625-1.992187-.300781-3.90625.898438-4.492187 2.820313-6.890625 22.28125-23.332031 35.847656-46.304687 38.21875-31.9375 3.289062-68.804688-15.433594-84.347657-42.722656-.132812-.234376-.257812-.472657-.390625-.710938-31.5-56.945312-11.8125-104.375-1.886718-122.128906 50.695312-90.648438 129.011718-119.472656 129.800781-119.757813 1.859375-.667969 2.976562-2.574219 2.640625-4.53125-.363282-1.929687-2.027344-3.36718725-4.011719-3.363281-7.773437.0078125-15.472656.421875-23.097656 1.238281-27.988281 14.65625-81.054688 49.671875-119.53125 118.476563-11.253907 20.128906-33.597657 73.855468 1.945312 138.109375l.398438.714843c18.753906 32.9375 61.8125 54.808594 100.152343 50.851563 20.675782-2.128906 37.523438-11.816406 48.847657-27.183594 2.394531-8.269531 3.742187-16.984375 3.734375-26.015625zm0 0" fill="#dbeaff"/><path d="m466.960938 153.644531c1.515624 1.28125 3.726562 1.296875 5.242187.027344 1.515625-1.265625 1.90625-3.441406.914063-5.15625-3.800782-6.582031-7.902344-12.90625-12.296876-18.976563-26.234374-16.558593-82.214843-44.875-158.632812-44.875l-3.996094.023438c-23.050781.285156-80.746094 7.726562-118.617187 70.460938-19.769531 32.769531-17.441407 81.363281 5.425781 113.03125 12.046875 16.695312 28.589844 26.59375 47.324219 28.859374 8.574219-2.046874 17.003906-5.234374 25.015625-9.859374 1.742187-1 2.488281-3.128907 1.757812-5.003907-.730468-1.867187-2.6875-2.949219-4.6875-2.480469-22.753906 5.171876-42.714844-2.324218-56.226562-21.039062-18.957032-26.257812-21.007813-68.039062-4.679688-95.105469 33.640625-55.726562 84.5625-62.34375 104.894532-62.597656h.007812c1.261719-.015625 2.527344-.023437 3.78125-.023437 101.613281 0 164.144531 52.183593 164.773438 52.714843zm0 0" fill="#ead1ff"/><path d="m356.222656 255.273438c-18.316406-33.628907-61.414062-56.082032-100.292968-52.398438-20.695313 1.992188-37.613282 11.570312-49.042969 26.871094-2.445313 8.253906-3.847657 16.953125-3.894531 25.980468-.007813 2.011719 1.445312 3.726563 3.429687 4.042969 2.046875.328125 3.90625-.875 4.511719-2.796875 7.035156-22.230468 23.566406-35.695312 46.550781-37.902344 32.375-3.136718 69.332031 16.21875 84.449219 43.980469 31.117187 57.15625 11.128906 104.460938 1.085937 122.144531-51.292969 90.300782-129.800781 118.625-130.585937 118.902344-1.867188.648438-2.992188 2.558594-2.667969 4.503906.386719 2.359376 2.796875 3.398438 5.210937 3.398438 7.339844 0 14.597657-.367188 21.753907-1.089844 28.011719-14.394531 81.378906-48.921875 120.433593-117.683594 11.386719-20.050781 34.085938-73.625-.941406-137.953124zm0 0" fill="#ead1ff"/><path d="m257.019531 224.367188c-1.734375-.992188-3.964843-.5625-5.203125 1.019531-1.25 1.582031-1.152344 3.835937.226563 5.296875 15.949219 17.011718 19.605469 38.015625 10.296875 59.152344-12.949219 29.378906-47.460938 52.148437-78.863282 52.148437-.273437 0-.542968-.007813-.8125-.007813-65.074218-.808593-96.542968-41.386718-107.058593-58.796874-53.6875-88.914063-39.976563-171.230469-39.835938-172.058594.34375-1.945313-.761719-3.859375-2.628906-4.535156-1.859375-.640626-3.929687.097656-4.90625 1.820312-3.839844 6.757812-7.265625 13.597656-10.332031 20.625-1.109375 31.574219 3.03125 95.074219 43.777344 162.558594 11.921874 19.738281 47.554687 65.742187 120.976562 66.65625l.816406.007812c37.902344 0 78.214844-26.59375 93.75-61.867187 8.378906-19.019531 8.304688-38.453125.550782-55.898438-6-6.175781-12.902344-11.65625-20.753907-16.121093zm0 0" fill="#ead1ff"/><path d="m279.710938 255.488281c0 22.460938-18.207032 40.667969-40.667969 40.667969-22.460938 0-40.667969-18.207031-40.667969-40.667969 0-22.460937 18.207031-40.667969 40.667969-40.667969 22.460937 0 40.667969 18.207032 40.667969 40.667969zm0 0" fill="#dbeaff"/><path d="m263.441406 255.488281c0 4.660157-1.304687 9.015625-3.570312 12.71875-4.289063 7.007813-12.011719 10.292969-20.828125 10.292969-13.476563 0-23.109375-9.535156-23.109375-23.011719 0-8.824219 3.390625-16.550781 10.40625-20.835937 3.699218-2.261719 8.050781-3.566406 12.703125-3.566406 13.476562.003906 24.398437 10.925781 24.398437 24.402343zm0 0" fill="#fff"/><path d="m247.175781 271.753906c-13.476562 0-24.398437-10.921875-24.398437-24.398437 0-4.648438 1.304687-9.007813 3.558594-12.703125-7.023438 4.28125-11.695313 12.007812-11.695313 20.835937 0 13.476563 10.925781 24.402344 24.402344 24.402344 8.828125 0 16.542969-4.660156 20.824219-11.683594-3.695313 2.253907-8.042969 3.546875-12.691407 3.546875zm0 0" fill="#edf4ff"/><path d="m369.175781 369.355469c0 2.386719-.511719 4.652343-1.433593 6.691406-2.554688 5.648437-8.234376 7.203125-14.832032 7.203125-8.984375 0-13.726562-4.910156-13.726562-13.894531 0-6.59375 1.386718-12.273438 7.027344-14.828125 2.042968-.921875 4.308593-1.4375 6.699218-1.4375 8.984375 0 16.265625 7.28125 16.265625 16.265625zm0 0" fill="#ffafaa"/><path d="m361.042969 377.488281c-8.984375 0-16.265625-7.28125-16.265625-16.265625 0-2.382812.511718-4.65625 1.433594-6.695312-5.648438 2.550781-9.566407 8.226562-9.566407 14.828125 0 8.984375 7.28125 16.265625 16.265625 16.265625 6.597656 0 12.28125-3.925782 14.832032-9.574219-2.042969.921875-4.316407 1.441406-6.699219 1.441406zm0 0" fill="#ff9a9f"/><path d="m287.84375 100.953125c0 2.386719-.515625 4.648437-1.4375 6.691406-2.550781 5.644531-8.230469 6.519531-14.832031 6.519531-8.984375 0-14.769531-4.226562-14.769531-13.210937 0-6.597656 2.429687-12.277344 8.074218-14.832031 2.042969-.921875 4.308594-1.433594 6.695313-1.433594 8.988281 0 16.269531 7.28125 16.269531 16.265625zm0 0" fill="#ffeaa8"/><path d="m279.710938 109.085938c-8.984376 0-16.269532-7.28125-16.269532-16.265626 0-2.382812.519532-4.65625 1.441406-6.695312-5.648437 2.550781-9.574218 8.226562-9.574218 14.828125 0 8.984375 7.285156 16.269531 16.269531 16.269531 6.597656 0 12.28125-3.929687 14.832031-9.578125-2.042968.921875-4.316406 1.441407-6.699218 1.441407zm0 0" fill="#ffe07d"/><path d="m108.910156 304.289062c0 2.382813-.511718 4.644532-1.433594 6.6875-2.550781 5.648438-8.234374 8.648438-14.835937 8.648438-8.984375 0-14.394531-6.351562-14.394531-15.335938 0-6.601562 2.0625-12.28125 7.710937-14.835937 2.039063-.917969 4.300781-1.429687 6.683594-1.429687 8.984375 0 16.269531 7.28125 16.269531 16.265624zm0 0" fill="#ccf49f"/><path d="m100.773438 312.421875c-8.984376 0-16.265626-7.28125-16.265626-16.265625 0-2.386719.527344-4.660156 1.445313-6.703125-5.644531 2.554687-9.578125 8.234375-9.578125 14.835937 0 8.984376 7.28125 16.265626 16.265625 16.265626 6.601563 0 12.28125-3.933594 14.835937-9.578126-2.039062.917969-4.316406 1.445313-6.703124 1.445313zm0 0" fill="#b3e59f"/></svg>