<svg height="512pt" viewBox="0 0 512 512.00122" width="512pt" xmlns="http://www.w3.org/2000/svg"><path d="m469.496094 254.140625c1.109375-7.402344-3.125-10.0625-9.375-5.945313-67.4375 44.429688-121.359375 29.496094-96.933594-14.648437 25.714844-46.476563 79.496094-23.390625 121.144531-97.910156 29.785157-53.304688 29.054688-104.769531 26.089844-130.257813-.65625-5.664062-8.054687-7.378906-11.144531-2.589844-17.253906 26.765626-60.417969 82.890626-120.882813 86.640626-92.613281 5.746093-98.015625 52.671874-148.402343 64.078124-3.292969.746094-5.652344-3.074218-3.5-5.675781 40.117187-48.539062 43.207031-98.089843 41.355468-123.828125-.421875-5.863281-8.070312-7.703125-11.226562-2.746094-36.0625 56.625-95.152344 73.441407-130.671875 102.390626-80.457031 65.574218-51.558594 152.507812-37.660157 196.21875l121.71875 110.984374s118.820313 11.441407 188.785157-48.683593c52.589843-45.199219 66.859375-102.40625 70.703125-128.027344zm0 0" fill="#fccf3f"/><path d="m329.546875 349.609375c-49.445313 40.085937-123.75 42.242187-165.070313 39.726563l45.527344 41.515624s118.824219 11.445313 188.789063-48.683593c52.589843-45.199219 66.859375-102.40625 70.703125-128.027344 1.109375-7.402344-3.125-10.0625-9.375-5.945313-25.753906 16.96875-49.53125 25.269532-67.730469 26.601563-2.898437 8.910156-15.066406 36.074219-62.84375 74.8125zm0 0" fill="#f2bc25"/><path d="m484.332031 135.632812c29.785157-53.300781 29.054688-104.765624 26.089844-130.253906-.65625-5.660156-8.054687-7.378906-11.144531-2.589844-8.878906 13.773438-24.625 35.328126-46.058594 53.515626-3.832031 10.835937-8.738281 21.980468-15.011719 33.207031-41.644531 74.523437-106.441406 86.121093-122.910156 136.617187-12.875 39.472656 24.878906 47.132813 57.265625 46.742188-15.339844-5.109375-20.527344-19.167969-9.375-39.324219 25.714844-46.476563 79.496094-23.390625 121.144531-97.914063zm0 0" fill="#f2bc25"/><path d="m275.371094 240.796875c-5.726563-6.179687-11.828125-11.808594-18.234375-16.886719-18.28125-14.472656-42.105469-9.132812-63.8125-14.578125-15.855469-3.976562-29.144531-20.875-45.414063-19.972656-.265625 1.90625-.871094 1.746094-1.695312.125-35.652344 2.359375-70.757813 16.484375-99 42.664063-6.023438 5.582031-11.515625 11.523437-16.492188 17.75-19.613281 24.539062-31.757812 58.984374-26.585937 93.609374 3.023437 20.269532-8.136719 30.949219-2.539063 50.863282v.003906.003906c6.707032 23.847656 18.96875 46.511719 36.96875 65.929688 60.617188 65.390625 162.765625 69.261718 228.15625 8.644531 65.394532-60.617187 69.265625-162.765625 8.648438-228.15625zm0 0" fill="#fd8f31"/><path d="m275.371094 240.796875c-5.726563-6.179687-11.828125-11.808594-18.234375-16.886719-3.347657-2.648437-6.878907-4.628906-10.550781-6.136718 40.15625 64.375 30.375 150.210937-27.335938 203.707031-55.367188 51.324219-137.089844 56.410156-197.636719 17.066406 4.941407 7.597656 10.582031 14.886719 16.953125 21.761719 60.617188 65.390625 162.765625 69.261718 228.160156 8.644531 65.390626-60.617187 69.261719-162.765625 8.644532-228.15625zm0 0" fill="#ff7f1f"/><g fill="#b86328"><path d="m147.910156 189.359375c-2.132812 15.195313-9.382812 38.210937-2.523437 47.214844 3.65625 4.800781 9.566406 8.460937 16.378906 11.246093 24.636719 10.089844 52.808594 6.179688 74.558594-9.171874l20.84375-14.714844c-18.28125-14.503906-42.125-9.152344-63.839844-14.601563-15.859375-3.976562-29.148437-20.875-45.417969-19.972656zm0 0"/><path d="m122.269531 444.695312-4.75-13.320312c-3.246093-9.101562-1.070312-19.253906 5.621094-26.222656l6.472656-6.738282c6.222657-6.484374 15.402344-9.210937 24.15625-7.179687l35.242188 8.183594c9.863281 2.292969 17.4375 10.203125 19.296875 20.160156l1.917968 10.265625c.550782 2.960938.574219 5.992188.070313 8.960938-2.023437 11.863281-12.0625 20.695312-24.082031 21.191406l-38.878906 1.605468c-11.15625.460938-21.316407-6.390624-25.066407-16.90625zm0 0"/><path d="m67.519531 275.089844c-6.265625-9.222656-36.796875-25.191406-36.796875-25.191406-19.613281 24.539062-31.757812 58.984374-26.585937 93.609374 3.027343 20.273438-8.140625 30.953126-2.539063 50.871094l26.769532-3.785156c15.050781-2.128906 26.824218-14.054688 28.761718-29.132812.902344-7.050782 4.011719-13.632813 8.875-18.816407l8.207032-8.734375c7.050781-7.507812 5.9375-40.226562-6.691407-58.820312zm0 0"/></g><path d="m276.664062 458.847656c27.125-29.914062 41.113282-67.757812 41.691407-105.878906-16.691407-.242188-38.128907 2.402344-42.894531 16.832031-8.054688 24.371094-10.371094 56.628907-10.371094 56.628907zm0 0" fill="#af5b22"/></svg>