<?xml version="1.0" encoding="iso-8859-1"?>
<!-- Generator: Adobe Illustrator 19.0.0, SVG Export Plug-In . SVG Version: 6.00 Build 0)  -->
<svg version="1.1" id="Layer_1" xmlns="http://www.w3.org/2000/svg" xmlns:xlink="http://www.w3.org/1999/xlink" x="0px" y="0px"
	 viewBox="0 0 512 512" style="enable-background:new 0 0 512 512;" xml:space="preserve">
<path style="fill:#FF5023;" d="M447.586,436.165l60.235-104.331l-24.748-21.748c4.135-17.367,6.338-35.474,6.338-54.087
	c0-18.614-2.203-36.721-6.34-54.087l24.746-21.748L447.583,75.833l-31.35,10.604c-26.198-24.77-58.115-43.544-93.536-54.124
	L316.235,0H195.765l-6.463,32.313c-35.421,10.58-67.339,29.354-93.536,54.124L64.414,75.832L4.179,180.162l24.748,21.748
	c-4.135,17.369-6.338,35.476-6.338,54.09c0,18.613,2.203,36.719,6.338,54.084L4.179,331.833l60.235,104.331l31.349-10.604
	c26.199,24.772,58.117,43.546,93.538,54.126L195.765,512h120.471l6.463-32.313c35.421-10.58,67.339-29.356,93.538-54.126
	L447.586,436.165z"/>
<g>
	<path style="fill:#BF3C1A;" d="M483.073,310.085c4.135-17.366,6.338-35.473,6.338-54.085c0-18.614-2.203-36.721-6.34-54.087
		l24.746-21.748L447.583,75.833l-31.35,10.604c-26.198-24.77-58.115-43.544-93.536-54.124L316.235,0H256v512h60.235l6.463-32.313
		c35.421-10.58,67.339-29.356,93.538-54.126l31.349,10.604l60.235-104.331L483.073,310.085z"/>
	<circle style="fill:#BF3C1A;" cx="128" cy="308.706" r="22.588"/>
</g>
<g>
	<circle style="fill:#802812;" cx="384" cy="308.706" r="22.588"/>
	<circle style="fill:#802812;" cx="323.765" cy="143.059" r="37.647"/>
	<circle style="fill:#802812;" cx="338.824" cy="384" r="37.647"/>
	<circle style="fill:#802812;" cx="165.647" cy="203.294" r="45.176"/>
</g>
<path style="fill:#FFC170;" d="M158.118,271.059c-37.365,0-67.765-30.398-67.765-67.765s30.399-67.765,67.765-67.765
	s67.765,30.399,67.765,67.765S195.485,271.059,158.118,271.059z M158.118,180.706c-12.455,0-22.588,10.133-22.588,22.588
	c0,12.455,10.133,22.588,22.588,22.588s22.588-10.133,22.588-22.588C180.706,190.839,170.573,180.706,158.118,180.706z"/>
<g>
</g>
<g>
</g>
<g>
</g>
<g>
</g>
<g>
</g>
<g>
</g>
<g>
</g>
<g>
</g>
<g>
</g>
<g>
</g>
<g>
</g>
<g>
</g>
<g>
</g>
<g>
</g>
<g>
</g>
</svg>
