<svg height="512pt" viewBox="0 -74 512.00021 512" width="512pt" xmlns="http://www.w3.org/2000/svg"><path d="m430.128906 236.6875 15.695313-5.914062-8.769531-25.652344-21.074219 9.476562zm0 0" fill="#36f1ff"/><path d="m100.890625 92.285156-4.417969-16.542968 22.585938-10.046876 8.550781 17.617188zm0 0" fill="#c5feff"/><path d="m423.507812 254.457031c-19.347656 44.714844-54.847656 79.109375-99.96875 96.859375-21.304687 8.378906-43.546874 12.558594-65.753906 12.558594-24.484375 0-48.917968-5.082031-72.023437-15.210938-8.476563-3.71875-16.535157-8.027343-24.144531-12.847656-74.164063-46.996094-105.265626-143.035156-69.214844-226.394531 19.347656-44.714844 54.847656-79.121094 99.96875-96.859375 44.78125-17.617188 93.71875-16.679688 137.777344 2.648438 7.039062 3.089843 13.789062 6.582031 20.226562 10.441406 76.980469 46.042968 109.816406 143.980468 73.132812 228.804687zm0 0" fill="#ffbb10"/><path d="m423.507812 254.457031c-19.347656 44.714844-54.847656 79.109375-99.96875 96.859375-21.304687 8.378906-43.546874 12.558594-65.753906 12.558594-24.484375 0-48.917968-5.082031-72.023437-15.210938-8.476563-3.71875-16.535157-8.027343-24.144531-12.847656l188.757812-310.164062c76.980469 46.042968 109.816406 143.980468 73.132812 228.804687zm0 0" fill="#ff7c10"/><path d="m509.769531 297.589844c-2.128906 4.917968-6.886719 11.660156-17.496093 15.839844-7.289063 2.859374-16.804688 4.179687-28.085938 4.179687-20.125 0-45.839844-4.199219-74.429688-11.320313-49.761718-12.378906-108.238281-33.574218-161.117187-56.761718-3.828125-1.683594-7.636719-3.371094-11.414063-5.082032-53.058593-23.867187-101.570312-49.941406-139.421874-74.910156-5.289063-3.480468-10.375-6.949218-15.234376-10.386718-50.46875-35.6875-69.625-62.363282-60.289062-83.941407 9.03125-20.898437 38.8125-20.257812 48.601562-20.058593 18.003907.390624 40.898438 3.929687 68.175782 10.550781-6.78125 8.238281-12.867188 17.125-18.167969 26.585937-49.289063-10.878906-66.183594-6.589844-70.492187-4.808594 1.957031 5.886719 13.746093 22.355469 52.625 49.394532 1.3125.910156 2.652343 1.828125 4.03125 2.769531 38.191406 26.015625 89.738281 53.921875 145.886718 78.980469 2.570313 1.148437 5.160156 2.289062 7.746094 3.429687 59.039062 25.886719 117.414062 46.164063 164.363281 57.074219 1.640625.378906 3.25.75 4.820313 1.089844 46.039062 10.25 66.066406 7.769531 71.722656 5.25-1.609375-4.390625-9.925781-19.777344-51.464844-48.777344 3.285156-10.4375 5.585938-20.996094 6.925782-31.566406 23.464843 15.628906 41.679687 30.117187 54.25 43.15625 6.785156 7.046875 27.460937 28.503906 18.464843 49.3125zm0 0" fill="#c5feff"/><path d="m228.402344 54.515625c-26.21875 0-47.546875 21.4375-47.546875 47.789063 0 26.351562 21.328125 47.789062 47.546875 47.789062s47.546875-21.4375 47.546875-47.789062c0-26.351563-21.328125-47.789063-47.546875-47.789063zm0 0" fill="#ff7c10"/><path d="m509.769531 297.589844c-2.128906 4.917968-6.886719 11.660156-17.496093 15.839844-7.289063 2.859374-16.804688 4.179687-28.085938 4.179687-20.125 0-45.839844-4.199219-74.429688-11.320313-49.761718-12.378906-108.238281-33.574218-161.117187-56.761718-3.828125-1.683594-7.636719-3.371094-11.414063-5.082032l15.714844-25.824218c2.570313 1.148437 5.160156 2.289062 7.746094 3.429687 59.039062 25.886719 117.414062 46.164063 164.363281 57.074219 1.640625.378906 3.25.75 4.820313 1.089844 46.039062 10.246094 66.066406 7.769531 71.722656 5.246094-1.609375-4.386719-9.925781-19.777344-51.464844-48.773438 3.285156-10.4375 5.585938-20.996094 6.925782-31.566406 23.464843 15.628906 41.679687 30.117187 54.25 43.15625 6.785156 7.046875 27.460937 28.503906 18.464843 49.3125zm0 0" fill="#36f1ff"/></svg>