<?xml version="1.0" encoding="iso-8859-1"?>
<!-- Generator: Adobe Illustrator 19.0.0, SVG Export Plug-In . SVG Version: 6.00 Build 0)  -->
<svg version="1.1" id="Layer_1" xmlns="http://www.w3.org/2000/svg" xmlns:xlink="http://www.w3.org/1999/xlink" x="0px" y="0px"
	 viewBox="0 0 512 512" style="enable-background:new 0 0 512 512;" xml:space="preserve">
<g>
	<rect x="233.412" style="fill:#93C7EF;" width="45.176" height="45.176"/>
	<rect x="233.412" y="90.353" style="fill:#93C7EF;" width="45.176" height="45.176"/>
	<rect x="233.412" y="466.824" style="fill:#93C7EF;" width="45.176" height="45.176"/>
	<rect x="233.412" y="376.471" style="fill:#93C7EF;" width="45.176" height="45.176"/>
	<rect y="233.412" style="fill:#93C7EF;" width="512" height="45.176"/>
</g>
<circle style="fill:#802812;" cx="256" cy="256" r="97.882"/>
<path style="fill:#401409;" d="M256,158.118c54.06,0,97.882,43.824,97.882,97.882S310.06,353.882,256,353.882"/>
<rect x="256" y="188.235" style="fill:#BF3C1A;" width="90.353" height="45.176"/>
<rect x="150.588" y="278.588" style="fill:#FF5023;" width="105.412" height="45.176"/>
<path style="fill:#E4F1FB;" d="M256,173.176c45.669,0,82.824,37.155,82.824,82.824S301.669,338.824,256,338.824
	S173.176,301.669,173.176,256S210.331,173.176,256,173.176 M256,128c-70.692,0-128,57.308-128,128s57.308,128,128,128
	s128-57.308,128-128S326.692,128,256,128L256,128z"/>
<path style="fill:#CCE9F9;" d="M256,128v45.176c45.669,0,82.824,37.155,82.824,82.824S301.669,338.824,256,338.824V384
	c70.692,0,128-57.308,128-128S326.692,128,256,128z"/>
<g>
</g>
<g>
</g>
<g>
</g>
<g>
</g>
<g>
</g>
<g>
</g>
<g>
</g>
<g>
</g>
<g>
</g>
<g>
</g>
<g>
</g>
<g>
</g>
<g>
</g>
<g>
</g>
<g>
</g>
</svg>
