<?xml version="1.0" encoding="iso-8859-1"?>
<!-- Generator: Adobe Illustrator 19.0.0, SVG Export Plug-In . SVG Version: 6.00 Build 0)  -->
<svg version="1.1" id="Layer_1" xmlns="http://www.w3.org/2000/svg" xmlns:xlink="http://www.w3.org/1999/xlink" x="0px" y="0px"
	 viewBox="0 0 512 512" style="enable-background:new 0 0 512 512;" xml:space="preserve">
<circle style="fill:#802812;" cx="256" cy="256" r="214.71"/>
<path style="fill:#401409;" d="M256,41.29c118.581,0,214.71,96.129,214.71,214.71S374.581,470.71,256,470.71"/>
<g>
	<path style="fill:#FFC36C;" d="M167.908,247.742c-48.534,0-74.166-9.612-96.781-18.093c-11.157-4.184-21.696-8.136-34.908-10.899
		l10.144-48.5c16.921,3.539,29.752,8.352,42.162,13.005c21.374,8.017,39.835,14.939,79.383,14.939
		c39.551,0,58.013-6.922,79.39-14.939c22.616-8.481,48.25-18.093,96.786-18.093s74.169,9.612,96.786,18.093
		c11.158,4.184,21.697,8.136,34.912,10.899l-10.143,48.5c-16.922-3.539-29.757-8.352-42.166-13.005
		c-21.377-8.017-39.837-14.939-79.388-14.939s-58.013,6.922-79.388,14.939C242.079,238.13,216.444,247.742,167.908,247.742z"/>
	<path style="fill:#FFC36C;" d="M167.908,346.839c-48.534,0-74.167-9.612-96.783-18.093c-11.157-4.185-21.696-8.136-34.907-10.901
		l10.144-48.498c16.921,3.539,29.752,8.351,42.162,13.005c21.374,8.017,39.834,14.939,79.383,14.939
		c39.551,0,58.013-6.922,79.39-14.939c22.616-8.481,48.25-18.093,96.786-18.093s74.169,9.612,96.786,18.093
		c11.158,4.184,21.697,8.136,34.912,10.899l-10.143,48.5c-16.922-3.539-29.757-8.352-42.166-13.005
		c-21.377-8.017-39.837-14.939-79.388-14.939s-58.013,6.922-79.388,14.939C242.079,337.226,216.444,346.839,167.908,346.839z"/>
</g>
<path style="fill:#FF5023;" d="M256,512C114.842,512,0,397.158,0,256S114.842,0,256,0c141.16,0,256,114.842,256,256
	S397.16,512,256,512z M256,49.548C142.163,49.548,49.548,142.163,49.548,256S142.163,462.452,256,462.452
	S462.452,369.837,462.452,256S369.837,49.548,256,49.548z"/>
<g>
	<path style="fill:#FF9A00;" d="M256,232.872c2.971-1.079,5.857-2.16,8.696-3.224c21.375-8.017,39.837-14.939,79.388-14.939
		s58.011,6.922,79.388,14.939c12.41,4.654,25.243,9.467,42.166,13.005l10.143-48.5c-13.215-2.763-23.753-6.715-34.912-10.899
		c-22.616-8.481-48.249-18.093-96.784-18.093c-42.441,0-67.371,7.35-88.084,14.866V232.872z"/>
	<path style="fill:#FF9A00;" d="M344.084,264.258c-42.441,0-67.371,7.35-88.084,14.866v52.845c2.971-1.078,5.857-2.16,8.696-3.224
		c21.375-8.017,39.837-14.939,79.388-14.939s58.011,6.922,79.388,14.939c12.41,4.654,25.243,9.467,42.166,13.005l10.143-48.5
		c-13.215-2.763-23.753-6.715-34.912-10.899C418.253,273.87,392.62,264.258,344.084,264.258z"/>
</g>
<path style="fill:#BF3C1A;" d="M256,512v-49.548c113.837,0,206.452-92.614,206.452-206.452S369.837,49.548,256,49.548V0
	c141.16,0,256,114.842,256,256S397.16,512,256,512z"/>
<g>
</g>
<g>
</g>
<g>
</g>
<g>
</g>
<g>
</g>
<g>
</g>
<g>
</g>
<g>
</g>
<g>
</g>
<g>
</g>
<g>
</g>
<g>
</g>
<g>
</g>
<g>
</g>
<g>
</g>
</svg>
