<svg height="511pt" viewBox="0 0 511 511.99996" width="511pt" xmlns="http://www.w3.org/2000/svg"><path d="m245.5 22c-81.085938 0-152.960938 39.402344-197.550781 100.09375l166.035156 387.894531c10.320313 1.324219 20.835937 2.011719 31.515625 2.011719 135.3125 0 245.003906-109.691406 245.003906-245-.003906-135.3125-109.691406-245-245.003906-245zm0 0" fill="#31a7ed"/><path d="m76.488281 102.160156c-9.941406 5.738282-19.261719 12.140625-27.941406 19.109375-30.1875 40.730469-48.046875 91.140625-48.046875 145.730469 0 124.996094 93.609375 228.121094 214.546875 243.117188 27.765625-3.65625 55.289063-12.703126 81.054687-27.578126 105.039063-60.644531 141.027344-194.957031 80.382813-299.996093-60.644531-105.039063-194.957031-141.027344-299.996094-80.382813zm0 0" fill="#5766ce"/><path d="m278.632812 438.65625c-121.132812 0-219.328124-98.195312-219.328124-219.328125 0-48.535156 15.777343-93.371094 42.46875-129.699219-8.578126 3.589844-17.023438 7.757813-25.289063 12.53125-9.9375 5.738282-19.257813 12.140625-27.9375 19.109375-30.1875 40.730469-48.046875 91.140625-48.046875 145.730469 0 124.996094 93.609375 228.121094 214.546875 243.117188 27.765625-3.65625 55.289063-12.703126 81.054687-27.578126 27.585938-15.925781 50.402344-36.941406 67.964844-61.167968-26.257812 11.121094-55.125 17.285156-85.433594 17.285156zm0 0" fill="#3d4ec6"/><path d="m329.859375 126.101562c-5.632813 10.277344-9.074219 21.628907-10.101563 33.273438-1.085937 12.296875-7.957031 23.339844-18.648437 29.511719h-.003906c-10.699219 6.175781-23.703125 6.589843-34.90625 1.382812-24.097657-11.203125-53.085938-10.882812-77.851563 3.414063-24.761718 14.296875-39.53125 39.242187-41.878906 65.714844-1.089844 12.304687-7.949219 23.359374-18.652344 29.539062-10.6875 6.171875-23.6875 6.601562-34.878906 1.390625-24.828125-11.546875-54.847656-10.871094-80.09375 4.726563-3.488281 2.15625-6.753906 4.550781-9.816406 7.128906 8.265625 57.480468 36.476562 108.515625 77.40625 145.855468 6.515625-1.859374 12.914062-4.542968 19.046875-8.085937 24.765625-14.296875 39.535156-39.246094 41.882812-65.714844 1.089844-12.308593 7.949219-23.363281 18.648438-29.539062 10.703125-6.179688 23.707031-6.59375 34.910156-1.382813 24.097656 11.203125 53.085937 10.882813 77.847656-3.414062 24.765625-14.296875 39.535157-39.242188 41.882813-65.714844 1.089844-12.304688 7.949218-23.359375 18.648437-29.539062 10.703125-6.175782 23.707031-6.589844 34.90625-1.382813 10.597657 4.925781 22.136719 7.621094 33.847657 7.882813-4.492188-23.519532-12.921876-46.699219-25.570313-68.605469s-28.507813-40.792969-46.625-56.441407zm0 0" fill="#3d4ec6"/><path d="m68.765625 283.214844c-18.726563-2.59375-38.464844 1.054687-55.921875 11.839844-3.492188 2.15625-6.753906 4.550781-9.820312 7.128906 8.269531 57.480468 36.476562 108.515625 77.410156 145.855468 6.515625-1.859374 12.910156-4.542968 19.046875-8.085937 20.292969-11.714844 33.867187-30.585937 39.402343-51.582031-32.726562-27.085938-57.449218-63.496094-70.117187-105.15625zm0 0" fill="#3342ae"/><path d="m338.996094 388.136719c-1.085938 12.296875-7.957032 23.339843-18.648438 29.511719-10.699218 6.175781-23.703125 6.589843-34.90625 1.382812-24.097656-11.203125-53.089844-10.886719-77.851562 3.410156-24.765625 14.296875-39.535156 39.246094-41.882813 65.714844-.296875 3.382812-1.042969 6.664062-2.175781 9.777344 16.4375 5.832031 33.671875 9.96875 51.507812 12.183594 27.769532-3.652344 55.296876-12.703126 81.0625-27.578126 63.949219-36.921874 102.304688-101.152343 108.839844-169.457031-7.464844 1.628907-14.804687 4.285157-21.808594 8.054688-26.128906 14.066406-41.726562 39.726562-44.136718 67zm0 0" fill="#3d4ec6"/><path d="m278.632812 438.65625c-26.574218 0-52.039062-4.726562-75.609374-13.382812-22.007813 14.621093-35.117188 38.082031-37.316407 62.882812-.296875 3.382812-1.042969 6.664062-2.175781 9.777344 16.4375 5.832031 33.671875 9.96875 51.507812 12.183594 27.769532-3.652344 55.296876-12.703126 81.0625-27.578126 27.585938-15.925781 50.394532-36.941406 67.953126-61.164062-26.253907 11.117188-55.117188 17.28125-85.421876 17.28125zm0 0" fill="#3342ae"/><path d="m36.84375 329.925781c-9.621094 5.554688-16.773438 13.613281-20.980469 22.621094 7.9375 21.289063 18.746094 41.171875 31.957031 59.1875 10.578126 1.453125 22.058594-.59375 32.449219-6.59375 23.03125-13.296875 31.984375-40.914063 19.992188-61.683594-11.992188-20.769531-40.386719-26.828125-63.417969-13.53125zm0 0" fill="#232e7a"/><path d="m48.578125 121.226562c-13.175781 17.769532-23.996094 37.390626-32.015625 58.390626 11.046875 2 23.15625 4.25 37.308594 5.261718 39.445312 2.824219 66.636718-19.355468 73.160156-47.175781 2.359375-10.070313 8.683594-18.847656 17.777344-24.097656 10.699218-6.175781 23.703125-6.589844 34.90625-1.382813 24.097656 11.203125 53.085937 10.886719 77.851562-3.410156 7.703125-4.449219 14.4375-9.933594 20.132813-16.167969-78.132813-35.683593-166.34375-21.863281-229.121094 28.582031zm0 0" fill="#3d4ec6"/><path d="m61.972656 185.097656c5.539063-35.304687 19.496094-67.8125 39.757813-95.410156-19.007813 7.921875-36.929688 18.503906-53.152344 31.539062-13.175781 17.769532-23.996094 37.390626-32.015625 58.390626 11.046875 2 23.15625 4.25 37.308594 5.261718 2.765625.199219 5.460937.261719 8.101562.21875zm0 0" fill="#3342ae"/><path d="m46.078125 226.65625c-4.527344-7.839844-15.945313-9.71875-25.507813-4.195312-9.5625 5.519531-13.644531 16.347656-9.121093 24.1875 4.527343 7.835937 15.945312 9.714843 25.507812 4.195312 9.5625-5.523438 13.644531-16.351562 9.121094-24.1875zm0 0" fill="#5766ce"/><path d="m360.675781 9.984375c-11.871093 5.179687-25.863281 1.433594-33.554687-8.988281-.734375-.996094-2.089844-1.292969-3.15625-.675782h-.003906c-1.070313.621094-1.488282 1.941407-.996094 3.074219 5.179687 11.871094 1.429687 25.863281-8.988282 33.550781-.996093.734376-1.292968 2.089844-.675781 3.160157.617188 1.074219 1.941407 1.492187 3.074219.996093 11.871094-5.179687 25.863281-1.429687 33.554688 8.992188.730468.996094 2.085937 1.292969 3.160156.675781 1.070312-.621093 1.488281-1.941406.992187-3.074219-5.179687-11.871093-1.429687-25.863281 8.992188-33.554687.996093-.734375 1.292969-2.089844.671875-3.160156-.617188-1.070313-1.9375-1.488281-3.070313-.996094zm0 0" fill="#f6d100"/><path d="m261.28125 17.011719c-3.894531-6.742188-12.511719-9.050781-19.253906-5.160157-6.738282 3.894532-9.046875 12.511719-5.15625 19.253907 3.890625 6.738281 12.511718 9.046875 19.25 5.15625 6.742187-3.890625 9.050781-12.511719 5.160156-19.25zm0 0" fill="#f6d100"/><path d="m401.484375 78.09375c-17.777344-2.542969-38.589844-2.515625-62.242187.4375-4.960938.617188-8.484376 5.144531-7.863282 10.109375.617188 4.960937 5.140625 8.488281 10.105469 7.863281 120.699219-15.0625 148.902344 46.3125 72.890625 141.761719-40.058594 50.300781-102.644531 101.398437-176.234375 143.886719-54.667969 31.5625-107.96875 54.167968-155.445313 67.914062 5.328126 4.742188 10.859376 9.261719 16.585938 13.53125 117.742188-37.195312 254.234375-119.835937 329.261719-214.046875 50.898437-63.914062 58.011719-116.640625 29.0625-146.550781h-30.101563c-8.046875-8.925781-16.75-17.246094-26.019531-24.90625zm0 0" fill="#a9d8fc"/><path d="m481.679688 56.394531c-29.472657-17.015625-67.15625-6.917969-84.171876 22.550781-17.011718 29.472657-6.917968 67.15625 22.554688 84.167969 29.46875 17.015625 67.152344 6.921875 84.167969-22.550781 17.015625-29.46875 6.917969-67.152344-22.550781-84.167969zm0 0" fill="#f6d100"/><path d="m481.679688 56.394531c-29.472657-17.015625-67.15625-6.917969-84.171876 22.550781-17.011718 29.472657-6.917968 67.15625 22.554688 84.167969 29.46875 17.015625 67.152344 6.921875 84.167969-22.550781 17.015625-29.46875 6.917969-67.152344-22.550781-84.167969zm0 0" fill="#f2ba00"/><path d="m449.953125 139.046875c-29.472656-17.015625-39.570313-54.699219-22.554687-84.167969.546874-.945312 1.117187-1.871094 1.703124-2.773437-12.859374 4.847656-24.183593 14-31.589843 26.832031-17.015625 29.46875-6.917969 67.152344 22.554687 84.167969 28.527344 16.472656 64.746094 7.535156 82.46875-19.78125-16.679687 6.289062-35.941406 5.332031-52.582031-4.277344zm0 0" fill="#eea200"/><path d="m397.511719 78.933594c-6.015625 10.417968-8.625 21.855468-8.207031 33.046875 10.636718-8.648438 25.546874-15.664063 45.074218-13.460938 25.183594 2.835938 45.050782-13.644531 55.988282-36.0625-2.675782-2.230469-5.566407-4.273437-8.683594-6.074219-29.472656-17.015624-67.15625-6.917968-84.171875 22.550782zm0 0" fill="#f6d100"/><path d="m389.304688 111.980469c7.953124-6.46875 18.304687-12.019531 31.191406-13.488281-3.394532-15.949219-.394532-32.519532 8.605468-46.386719-23.84375 8.988281-40.574218 32.15625-39.796874 59.875zm0 0" fill="#f2ba00"/><path d="m455.308594 146.617188c-3.125 9.738281-7.164063 17.769531-11.449219 24.347656 23.636719 2.695312 47.722656-8.496094 60.375-30.414063 5.09375-8.816406 7.738281-18.371093 8.179687-27.890625-27.605468 15.628906-47.355468 3.585938-57.105468 33.957032zm0 0" fill="#f6d100"/><path d="m456.816406 142.453125c-.527344 1.292969-1.03125 2.675781-1.507812 4.164063-3.125 9.734374-7.164063 17.765624-11.445313 24.339843 22.703125 2.582031 45.644531-7.601562 58.65625-27.628906-14.425781 5.4375-30.78125 5.441406-45.703125-.875zm0 0" fill="#f2ba00"/><path d="m395.199219 136.132812c5.171875 10.933594 13.597656 20.46875 24.863281 26.972657.046875.027343.09375.050781.140625.078125 11.628906-17.714844 22.128906-38.652344 6.535156-38.402344-11.882812.195312-22.914062 5.488281-31.539062 11.351562zm0 0" fill="#f2ba00"/><path d="m177.386719 413.914062c-33.109375 15.523438-65.035157 27.566407-94.691407 36.148438 5.328126 4.742188 10.859376 9.265625 16.585938 13.535156 28.082031-8.871094 57.230469-20.332031 86.355469-33.914062-8.117188-.066406-12.753907-9.179688-8.25-15.769532zm0 0" fill="#4ac4f4"/></svg>