<svg height="511pt" viewBox="0 0 511.99925 511" width="511pt" xmlns="http://www.w3.org/2000/svg"><path d="m36.601562 475.511719c-2.859374-2.859375-2.859374-7.492188 0-10.347657l52.6875-52.640624c2.859376-2.855469 7.496094-2.855469 10.355469 0 2.859375 2.859374 2.859375 7.492187 0 10.347656l-52.6875 52.640625c-2.859375 2.855469-7.496093 2.855469-10.355469 0zm0 0" fill="#74505d"/><path d="m47.601562 503.921875c-10.886718 10.878906-28.542968 10.878906-39.433593 0s-10.890625-28.523437 0-39.402344c10.890625-10.878906 28.546875-10.878906 39.433593 0 10.890626 10.878907 10.890626 28.523438 0 39.402344zm0 0" fill="#d1c0c7"/><path d="m47.601562 464.519531c-3.589843-3.589843-7.921874-5.984375-12.503906-7.207031 2.484375 9.292969.085938 19.617188-7.214844 26.910156-7.296874 7.289063-17.628906 9.6875-26.929687 7.207032 1.21875 4.574218 3.621094 8.902343 7.214844 12.492187 10.886719 10.878906 28.542969 10.878906 39.433593 0 10.890626-10.878906 10.890626-28.523437 0-39.402344zm0 0" fill="#beadb5"/><path d="m86.105469 472.328125-46.320313-46.277344c-2.859375-2.855469-2.859375-7.488281 0-10.34375 2.863282-2.859375 7.496094-2.859375 10.355469 0l46.320313 46.273438c2.859374 2.859375 2.859374 7.492187 0 10.347656-2.859376 2.859375-7.496094 2.859375-10.355469 0zm0 0" fill="#84606f"/><path d="m148.171875 429.707031c-15.988281 15.972657-43.660156 14.222657-61.808594-3.910156-18.152343-18.132813-19.90625-45.785156-3.917969-61.757813 15.988282-15.976562 43.664063-14.222656 61.8125 3.910157 18.152344 18.132812 19.902344 45.785156 3.914063 61.757812zm0 0" fill="#d1c0c7"/><path d="m144.257812 367.949219c-2.984374-2.984375-6.234374-5.515625-9.644531-7.609375 10.621094 17.289062 9.65625 38.777344-3.699219 52.121094-13.355468 13.34375-34.867187 14.308593-52.167968 3.699218 2.09375 3.402344 4.628906 6.652344 7.617187 9.636719 18.148438 18.132813 45.824219 19.882813 61.8125 3.910156 15.984375-15.972656 14.234375-43.625-3.917969-61.757812zm0 0" fill="#beadb5"/><path d="m226.382812 262.703125 23.160157 23.140625-46.796875 46.832031-23.15625-23.140625zm0 0" fill="#84606f"/><path d="m191.160156 321.074219 46.828125-46.800781 11.570313 11.578124-46.824219 46.800782zm0 0" fill="#74505d"/><path d="m35.902344 317.535156c-4.152344-4.152344-3.917969-11 .578125-14.773437 48.253906-40.441407 120.300781-37.992188 165.675781 7.339843 45.378906 45.339844 47.824219 117.332032 7.335938 165.542969-3.769532 4.492188-10.609376 4.726563-14.757813.582031zm0 0" fill="#f0e9ed"/><path d="m209.492188 475.644531c40.488281-48.210937 38.042968-120.203125-7.335938-165.542969-5.910156-5.902343-12.277344-11.074218-18.980469-15.523437 26.019531 39.125 27.1875 89.878906 3.496094 130.046875-8.179687 13.863281-27.207031 16.367188-38.59375 4.988281l46.65625 46.613281c4.148437 4.144532 10.988281 3.910157 14.757813-.582031zm0 0" fill="#ded4d8"/><path d="m233.542969 477.414062-198.675781-198.675781c-2.945313-2.945312-2.945313-7.722656 0-10.667969 2.945312-2.945312 7.722656-2.945312 10.667968 0l198.675782 198.675782c2.945312 2.945312 2.945312 7.71875 0 10.667968-2.945313 2.945313-7.722657 2.945313-10.667969 0zm0 0" fill="#84606f"/><path d="m374.832031 222.796875-15.914062-15.910156c-2.945313-2.945313-2.945313-7.722657 0-10.667969 2.949219-2.949219 7.722656-2.949219 10.671875 0l15.910156 15.910156c2.941406 2.941406 7.726562 2.941406 10.667969 0l92.464843-92.460937c2.941407-2.941407 2.941407-7.726563 0-10.667969l-31.828124-31.828125c-2.941407-2.941406-7.726563-2.941406-10.667969 0l-37.933594 37.933594c-2.945313 2.945312-7.71875 2.945312-10.667969 0-2.945312-2.945313-2.945312-7.722657 0-10.667969l37.933594-37.933594c8.824219-8.824218 23.183594-8.824218 32.003906 0l31.828125 31.828125c8.824219 8.824219 8.824219 23.179688 0 32.003907l-92.464843 92.460937c-8.824219 8.828125-23.179688 8.824219-32.003907 0zm0 0" fill="#84606f"/><path d="m496.707031 67.703125 5.035157 5.035156c4.019531 4.019531 4.019531 10.535157 0 14.558594l-17.121094 17.121094c-4.019532 4.019531-10.539063 4.019531-14.558594 0l-8.675781-8.675781c-4.019531-4.019532-4.019531-10.539063 0-14.558594l13.484375-13.480469c6.03125-6.03125 15.808594-6.03125 21.835937 0zm0 0" fill="#e5646e"/><path d="m377.527344 152.246094-17.371094-17.355469c-4.796875-4.792969-4.796875-12.570313 0-17.367187l34.742188-34.707032c4.792968-4.789062 12.558593-4.789062 17.351562 0l17.371094 17.351563c4.796875 4.796875 4.796875 12.574219 0 17.371093l-34.742188 34.707032c-4.792968 4.789062-12.558594 4.789062-17.351562 0zm0 0" fill="#ffe779"/><path d="m429.625 100.175781-17.257812-17.242187c4.792968 4.789062 4.792968 12.5625 0 17.351562l-34.742188 34.710938c-4.792969 4.789062-12.570312 4.789062-17.367188 0l17.261719 17.242187c4.796875 4.792969 12.570313 4.792969 17.367188 0l34.738281-34.707031c4.796875-4.792969 4.796875-12.5625 0-17.355469zm0 0" fill="#ffdd48"/><path d="m400.65625 314.238281-23.15625 23.136719-202.464844-202.632812 23.15625-23.140626zm0 0" fill="#74505d"/><path d="m174.945312 134.832031 11.570313-11.578125 202.636719 202.464844-11.570313 11.578125zm0 0" fill="#84606f"/><path d="m242.253906 293.210938-23.160156-23.136719c-12.796875-12.789063-12.796875-33.53125 0-46.320313l108.074219-107.980468c12.78125-12.769532 33.496093-12.769532 46.277343 0l23.160157 23.140624c12.796875 12.789063 12.796875 33.53125 0 46.316407l-108.074219 107.980469c-12.785156 12.773437-33.496094 12.773437-46.277344 0zm0 0" fill="#d1c0c7"/><path d="m396.625 138.933594-23.160156-23.136719c-1.960938-1.960937-4.105469-3.613281-6.382813-4.972656 7.507813 12.566406 5.851563 29.078125-4.980469 39.898437l-108.074218 107.976563c-10.828125 10.820312-27.355469 12.476562-39.929688 4.972656 1.359375 2.277344 3.015625 4.421875 4.976563 6.378906l23.160156 23.140625c12.789063 12.777344 33.527344 12.777344 46.316406 0l108.074219-107.980468c12.789062-12.777344 12.789062-33.496094 0-46.277344zm0 0" fill="#beadb5"/><path d="m332.296875 180.265625-18.449219-18.449219c-2.945312-2.945312-2.945312-7.722656 0-10.671875 2.945313-2.945312 7.722656-2.945312 10.667969 0l18.449219 18.453125c2.949218 2.945313 2.949218 7.722656 0 10.667969-2.945313 2.945313-7.71875 2.945313-10.667969 0zm0 0" fill="#e5646e"/><path d="m311.433594 201.128906-18.449219-18.449218c-2.945313-2.949219-2.945313-7.722657 0-10.671876 2.945313-2.945312 7.722656-2.945312 10.667969 0l18.449218 18.453126c2.949219 2.945312 2.949219 7.722656 0 10.667968-2.945312 2.945313-7.722656 2.945313-10.667968 0zm0 0" fill="#e5646e"/><path d="m258.085938 257.023438 9.605468 9.609374c3.929688 3.925782 10.296875 3.925782 14.226563 0l84.511719-84.515624c5.894531-5.890626 5.894531-15.445313 0-21.335938l-9.605469-9.609375c-3.925781-3.925781-10.296875-3.925781-14.226563 0l-84.511718 84.515625c-5.894532 5.890625-5.894532 15.445312 0 21.335938zm0 0" fill="#ffe779"/><path d="m366.429688 160.78125-9.605469-9.609375c-.429688-.425781-.890625-.800781-1.371094-1.132813 4.453125 5.910157 4.007813 14.339844-1.378906 19.722657l-84.511719 84.515625c-3.5 3.5-8.933594 3.871094-12.855469 1.136718.417969.558594.867188 1.101563 1.378907 1.609376l9.605468 9.609374c3.929688 3.925782 10.296875 3.925782 14.226563 0l84.511719-84.515624c5.894531-5.890626 5.894531-15.445313 0-21.335938zm0 0" fill="#ffdd48"/><path d="m338.53125 440.265625-39.667969-39.632813c-10.960937-10.953124-10.960937-28.71875 0-39.667968l125.613281-125.503906c10.949219-10.9375 28.6875-10.9375 39.632813 0l39.667969 39.632812c10.960937 10.949219 10.960937 28.714844 0 39.667969l-125.613282 125.503906c-10.949218 10.9375-28.6875 10.9375-39.632812 0zm0 0" fill="#40c1fa"/><path d="m483.960938 255.292969-19.832032-19.816407c-10.953125-10.941406-28.714844-10.941406-39.667968 0l-62.808594 62.753907 39.667968 39.632812zm0 0" fill="#2bd9f8"/><path d="m401.320312 337.863281-82.640624 82.566407 19.832031 19.816406c10.957031 10.945312 28.714843 10.945312 39.667969 0l62.808593-62.75zm0 0" fill="#2bd9f8"/><path d="m111.574219 213.507812-39.667969-39.632812c-10.960938-10.953125-10.960938-28.71875 0-39.667969l125.613281-125.503906c10.945313-10.9375 28.6875-10.9375 39.632813 0l39.667968 39.632813c10.960938 10.949218 10.960938 28.714843 0 39.667968l-125.613281 125.503906c-10.949219 10.9375-28.6875 10.9375-39.632812 0zm0 0" fill="#40c1fa"/><g fill="#2bd9f8"><path d="m257.003906 28.535156-19.832031-19.816406c-10.957031-10.945312-28.714844-10.945312-39.667969 0l-62.808594 62.753906 39.667969 39.632813zm0 0"/><path d="m174.363281 111.105469-82.644531 82.566406 19.835938 19.816406c10.953124 10.945313 28.714843 10.945313 39.667968 0l62.808594-62.75zm0 0"/></g></svg>