<?xml version="1.0" encoding="iso-8859-1"?>
<!-- Generator: Adobe Illustrator 19.0.0, SVG Export Plug-In . SVG Version: 6.00 Build 0)  -->
<svg version="1.1" id="Capa_1" xmlns="http://www.w3.org/2000/svg" xmlns:xlink="http://www.w3.org/1999/xlink" x="0px" y="0px"
	 viewBox="0 0 512 512" style="enable-background:new 0 0 512 512;" xml:space="preserve">
<g>
	<path style="fill:#5C546A;" d="M304.002,327.992V336c0,4.418,3.578,8,8,8h32v-16.008H304.002z"/>
	<path style="fill:#5C546A;" d="M399.998,311.992v16h-39.995V344H392c4.422,0,8-3.582,8-8v-32c0-4.418-3.578-8-8-8h-31.998v15.992
		H399.998z"/>
	<path style="fill:#5C546A;" d="M344.002,296h-32c-4.422,0-8,3.582-8,8v7.992h40V296z"/>
	<path style="fill:#888693;" d="M286.994,327.992h17.008h40V344h16v-16.008h39.995v-16h-39.995V296h-16v15.992h-40H286.99
		c0.659,2.559,1.01,5.242,1.01,8.008C288,322.76,287.65,325.438,286.994,327.992z"/>
	<path style="fill:#5C546A;" d="M167.998,344h32c4.422,0,8-3.582,8-8v-8.008h-40V344z"/>
	<path style="fill:#5C546A;" d="M207.998,311.992V304c0-4.418-3.578-8-8-8h-32v15.992H207.998z"/>
	<path style="fill:#5C546A;" d="M112.002,327.992v-16h39.995V296H120c-4.422,0-8,3.582-8,8v32c0,4.418,3.578,8,8,8h31.998v-16.008
		H112.002z"/>
	<path style="fill:#888693;" d="M225.01,311.992h-17.013h-40V296h-16v15.992h-39.995v16h39.995V344h16v-16.008h40h17.009
		C224.349,325.438,224,322.76,224,320C224,317.235,224.351,314.552,225.01,311.992z"/>
	<path style="fill:#5C546A;" d="M456,247.992v16h-39.998V280h32c4.422,0,8-3.582,8-8v-32c0-4.418-3.578-8-8-8h-32v15.992H456z"/>
	<path style="fill:#5C546A;" d="M344.002,232h-32c-4.422,0-8,3.582-8,8v7.992h40V232z"/>
	<rect x="360.002" y="263.992" style="fill:#5C546A;" width="40" height="16.008"/>
	<rect x="360.002" y="232" style="fill:#5C546A;" width="40" height="15.992"/>
	<path style="fill:#5C546A;" d="M304.002,263.992V272c0,4.418,3.578,8,8,8h32v-16.008H304.002z"/>
	<polygon style="fill:#888693;" points="304.002,263.992 344.002,263.992 344.002,280 360.002,280 360.002,263.992 400.002,263.992 
		400.002,280 416.002,280 416.002,263.992 456,263.992 456,247.992 416.002,247.992 416.002,232 400.002,232 400.002,247.992 
		360.002,247.992 360.002,232 344.002,232 344.002,247.992 304.002,247.992 288,247.992 288,263.992 	"/>
	<path style="fill:#5C546A;" d="M168,280h32c4.422,0,8-3.582,8-8v-7.992h-40V280z"/>
	<rect x="112" y="264.007" style="fill:#5C546A;" width="40" height="15.992"/>
	<rect x="112" y="232" style="fill:#5C546A;" width="40" height="16.008"/>
	<path style="fill:#5C546A;" d="M56.002,264.007v-16H96V232H64c-4.422,0-8,3.582-8,8v32c0,4.418,3.578,8,8,8h32v-15.992H56.002z"/>
	<path style="fill:#5C546A;" d="M208,248.007V240c0-4.418-3.578-8-8-8h-32v16.008H208z"/>
	<path style="fill:#888693;" d="M256,408h16c4.422,0,8-3.582,8-8v-36.688c0-4.273-1.664-8.289-4.688-11.313l-3.934-3.934
		C266.814,350.572,261.574,352,256,352V408z"/>
	<path style="fill:#5C546A;" d="M240.622,348.066L236.688,352c-3.023,3.023-4.688,7.039-4.688,11.313V400c0,4.418,3.578,8,8,8h16
		v-56C250.426,352,245.186,350.572,240.622,348.066z"/>
	<path style="fill:#888693;" d="M256,288v-56c-10.688,0-20.388-4.2-27.563-11.028C225.696,223.845,224,227.724,224,232v16.008h-16
		h-40V232h-16v16.008h-40V232H96v16.008H56.002v16H96V280h16v-15.992h40V280h16v-15.992h40h16V288c0,5.226,2.529,9.859,6.415,12.781
		C236.254,293.02,245.54,288,256,288z"/>
	<path style="fill:#B6B8BE;" d="M256,288c10.46,0,19.746,5.02,25.585,12.781C285.47,297.859,288,293.226,288,288v-24.008v-16V232
		c0-4.276-1.696-8.155-4.437-11.028C276.388,227.8,266.687,232,256,232V288z"/>
	<rect x="208" y="152" style="fill:#B6B8BE;" width="16" height="0.008"/>
	<path style="fill:#B6B8BE;" d="M223.993,168.007H208V176c0,4.418-3.578,8-8,8h-24v16c0,8.836,7.163,16,16,16h32
		c-5.022-6.686-8-14.995-8-24C216,182.998,218.975,174.692,223.993,168.007z"/>
	<path style="fill:#B6B8BE;" d="M400,184h-40h-16h-32c-4.422,0-8-3.582-8-8v-8.008h-16v-16V136c0-8.824-7.18-16-16-16h-8h-8v32
		c22.091,0,40,17.909,40,40c0,9.005-2.977,17.314-8,24H424c8.837,0,16-7.164,16-16v-16h-24H400z"/>
	<path style="fill:#5C546A;" d="M344,136h-32c-4.422,0-8,3.582-8,8v7.992h40V136z"/>
	<rect x="416" y="136" style="fill:#5C546A;" width="40" height="15.992"/>
	<path style="fill:#5C546A;" d="M504,136h-32v15.992h39.998v16H472V184h32c4.422,0,8-3.582,8-8v-32C512,139.582,508.422,136,504,136
		z"/>
	<rect x="360" y="136" style="fill:#5C546A;" width="40" height="15.992"/>
	<polygon style="fill:#5C546A;" points="416,167.992 416,184 440,184 456,184 456,167.992 	"/>
	<rect x="360" y="167.992" style="fill:#5C546A;" width="40" height="16.008"/>
	<path style="fill:#5C546A;" d="M312,184h32v-16.008h-40V176C304,180.418,307.578,184,312,184z"/>
	<polygon style="fill:#888693;" points="511.998,167.992 511.998,151.992 472,151.992 472,136 456,136 456,151.992 416,151.992 
		416,136 400,136 400,151.992 360,151.992 360,136 344,136 344,151.992 304,151.992 288,151.992 288,167.992 304,167.992 
		344,167.992 344,184 360,184 360,167.992 400,167.992 400,184 416,184 416,167.992 456,167.992 456,184 472,184 472,167.992 	"/>
	<rect x="112" y="136" style="fill:#5C546A;" width="40" height="16.008"/>
	<path style="fill:#5C546A;" d="M208,152.007V152v-8c0-4.418-3.578-8-8-8h-32v16.008H208z"/>
	<rect x="56" y="136" style="fill:#5C546A;" width="40" height="16.008"/>
	<path style="fill:#5C546A;" d="M0.002,168.007v-16H40V136H8c-4.422,0-8,3.582-8,8v32c0,4.418,3.578,8,8,8h32v-15.992H0.002z"/>
	<rect x="112" y="168.007" style="fill:#5C546A;" width="40" height="15.992"/>
	<rect x="56" y="168.007" style="fill:#5C546A;" width="40" height="15.992"/>
	<path style="fill:#5C546A;" d="M208,176v-7.992h-40V184h8h24C204.422,184,208,180.418,208,176z"/>
	<path style="fill:#888693;" d="M208,168.007h15.993C231.291,158.288,242.91,152,256,152v-32h-8h-8c-8.82,0-16,7.176-16,16v16v0.008
		h-16h-40V136h-16v16.008h-40V136H96v16.008H56V136H40v16.008H0.002v16H40V184h16v-15.992h40V184h16v-15.992h40V184h16v-15.992H208z
		"/>
	<path style="fill:#5C546A;" d="M264,120v-8c0-4.418-3.578-8-8-8s-8,3.582-8,8v8h8H264z"/>
	<path style="fill:#D5D9DE;" d="M256,152c-13.09,0-24.709,6.288-32.007,16.008C218.975,174.692,216,182.998,216,192
		c0,9.005,2.977,17.314,8,24c1.338,1.781,2.827,3.439,4.437,4.972C235.612,227.8,245.313,232,256,232
		c10.687,0,20.388-4.2,27.563-11.028c1.61-1.533,3.1-3.191,4.437-4.972c5.022-6.686,8-14.995,8-24C296,169.909,278.091,152,256,152z
		 M232,192c0-13.255,10.745-24,24-24c13.255,0,24,10.745,24,24s-10.745,24-24,24C242.745,216,232,205.255,232,192z"/>
	<path style="fill:#D5D9DE;" d="M256,288c-10.46,0-19.746,5.02-25.585,12.781c-2.483,3.3-4.344,7.095-5.405,11.212
		c-0.659,2.559-1.01,5.242-1.01,8.008c0,2.76,0.349,5.438,1.006,7.992c2.223,8.645,7.969,15.875,15.615,20.073
		C245.186,350.572,250.426,352,256,352c5.574,0,10.814-1.428,15.378-3.934c7.646-4.198,13.392-11.428,15.615-20.073
		C287.65,325.438,288,322.76,288,320c0-2.765-0.351-5.448-1.01-8.008c-1.061-4.117-2.921-7.912-5.405-11.212
		C275.746,293.02,266.46,288,256,288z M240,320c0-7.638,5.356-14.016,12.515-15.608c0.156-0.035,0.313-0.069,0.471-0.099
		c0.977-0.187,1.983-0.293,3.014-0.293c1.104,0,2.183,0.112,3.224,0.325c1.292,0.264,2.519,0.701,3.677,1.257
		c3.043,1.459,5.562,3.836,7.167,6.792c0.009,0.016,0.016,0.034,0.024,0.051c0.415,0.77,0.757,1.584,1.043,2.424
		c0.127,0.373,0.236,0.753,0.336,1.139c0.2,0.774,0.362,1.563,0.445,2.377c0.055,0.538,0.083,1.084,0.083,1.636
		c0,8.836-7.164,16-16,16C247.163,336,240,328.836,240,320z"/>
	<path style="fill:#B6B8BE;" d="M280,192c0-13.255-10.745-24-24-24c-13.255,0-24,10.745-24,24s10.745,24,24,24
		C269.255,216,280,205.255,280,192z M256,208c-8.837,0-16-7.163-16-16c0-7.638,5.356-14.016,12.515-15.608
		c0.156-0.035,0.313-0.069,0.471-0.099c0.977-0.187,1.983-0.293,3.014-0.293c1.104,0,2.183,0.112,3.224,0.325
		c1.292,0.264,2.519,0.701,3.677,1.257c3.043,1.459,5.562,3.836,7.167,6.792c0.009,0.017,0.016,0.034,0.024,0.051
		c0.415,0.77,0.757,1.584,1.043,2.424c0.127,0.373,0.236,0.754,0.336,1.139c0.332,1.285,0.528,2.625,0.528,4.013
		C272,200.837,264.836,208,256,208z"/>
	<path style="fill:#FFCF00;" d="M252.986,176.293c0.977-0.187,1.983-0.293,3.014-0.293C254.969,176,253.963,176.106,252.986,176.293
		z"/>
	<path style="fill:#FFCF00;" d="M271.136,186.848c0.127,0.373,0.236,0.754,0.336,1.139
		C271.372,187.602,271.263,187.221,271.136,186.848z"/>
	<path style="fill:#FFCF00;" d="M256,176c1.104,0,2.183,0.112,3.224,0.325C258.183,176.112,257.104,176,256,176z"/>
	<path style="fill:#FFCF00;" d="M270.069,184.373c0.009,0.017,0.016,0.034,0.024,0.051
		C270.084,184.408,270.078,184.39,270.069,184.373z"/>
	<g>
		<line style="fill:#FFCF00;" x1="244.687" y1="180.686" x2="244.698" y2="180.698"/>
		<g>
			<path style="fill:#FFCF00;" d="M240,192c0,8.837,7.163,16,16,16c4.418,0,8.418-1.791,11.314-4.686l-22.615-22.615
				C241.8,183.591,240,187.58,240,192z"/>
		</g>
	</g>
	<path style="fill:#FFCF00;" d="M259.224,176.325c1.292,0.264,2.519,0.701,3.677,1.257
		C261.743,177.026,260.517,176.589,259.224,176.325z"/>
	<path style="fill:#FF9300;" d="M256,304c1.104,0,2.183,0.112,3.224,0.325C258.183,304.112,257.104,304,256,304z"/>
	<path style="fill:#FF9300;" d="M259.224,304.325c1.292,0.264,2.519,0.701,3.677,1.257
		C261.743,305.026,260.517,304.589,259.224,304.325z"/>
	<path style="fill:#FF9300;" d="M252.986,304.293c0.977-0.187,1.983-0.293,3.014-0.293C254.969,304,253.963,304.106,252.986,304.293
		z"/>
	<g>
		<path style="fill:#FF9300;" d="M240,320c0,8.836,7.163,16,16,16c4.418,0,8.418-1.791,11.314-4.686l-22.615-22.615
			C241.8,311.591,240,315.58,240,320z"/>
	</g>
	<path style="fill:#FF9300;" d="M271.136,314.848c0.127,0.373,0.236,0.754,0.336,1.139
		C271.372,315.601,271.263,315.221,271.136,314.848z"/>
	<path style="fill:#FF9300;" d="M270.069,312.373c0.009,0.017,0.016,0.034,0.024,0.051
		C270.084,312.408,270.078,312.39,270.069,312.373z"/>
	<path style="fill:#FFEDB9;" d="M271.136,186.848c-0.286-0.84-0.628-1.653-1.043-2.424c-0.009-0.017-0.015-0.034-0.024-0.051
		c-1.605-2.956-4.125-5.332-7.167-6.792c-1.158-0.556-2.385-0.992-3.677-1.257c-1.042-0.213-2.12-0.325-3.224-0.325
		c-1.032,0-2.037,0.106-3.014,0.293c-0.158,0.03-0.314,0.064-0.471,0.099c-3.018,0.671-5.718,2.184-7.828,4.294l22.627,22.627
		C270.209,200.418,272,196.418,272,192c0-1.389-0.196-2.729-0.528-4.013C271.372,187.602,271.263,187.221,271.136,186.848z"/>
	<path style="fill:#FFCF00;" d="M267.313,331.313C270.209,328.418,272,324.418,272,320c0-0.552-0.028-1.098-0.083-1.636
		c-0.083-0.814-0.245-1.604-0.445-2.377c-0.1-0.385-0.209-0.765-0.336-1.139c-0.286-0.84-0.628-1.653-1.043-2.424
		c-0.009-0.017-0.015-0.034-0.024-0.051c-1.605-2.956-4.125-5.332-7.167-6.792c-1.158-0.556-2.385-0.992-3.677-1.257
		c-1.042-0.213-2.12-0.325-3.224-0.325c-1.032,0-2.037,0.106-3.014,0.293c-0.158,0.03-0.314,0.064-0.471,0.099
		c-3.018,0.671-5.718,2.184-7.828,4.294L267.313,331.313z"/>
</g>
<g>
</g>
<g>
</g>
<g>
</g>
<g>
</g>
<g>
</g>
<g>
</g>
<g>
</g>
<g>
</g>
<g>
</g>
<g>
</g>
<g>
</g>
<g>
</g>
<g>
</g>
<g>
</g>
<g>
</g>
</svg>
