<?xml version="1.0" encoding="iso-8859-1"?>
<!-- Generator: Adobe Illustrator 19.0.0, SVG Export Plug-In . SVG Version: 6.00 Build 0)  -->
<svg version="1.1" id="Capa_1" xmlns="http://www.w3.org/2000/svg" xmlns:xlink="http://www.w3.org/1999/xlink" x="0px" y="0px"
	 viewBox="0 0 512 512" style="enable-background:new 0 0 512 512;" xml:space="preserve">
<g>
	<path style="fill:#E3E6E9;" d="M499.435,481.9c-0.13,0.029-0.261,0.057-0.392,0.082C499.174,481.957,499.305,481.929,499.435,481.9
		z"/>
	<path style="fill:#E3E6E9;" d="M497.453,482.216c-0.003,0-0.005,0.001-0.008,0.001C497.448,482.217,497.45,482.216,497.453,482.216
		z"/>
	<path style="fill:#E3E6E9;" d="M502.93,480.683c-0.135,0.065-0.267,0.135-0.404,0.197
		C502.663,480.818,502.795,480.748,502.93,480.683z"/>
	<path style="fill:#E3E6E9;" d="M504.44,479.852c-0.143,0.089-0.288,0.173-0.432,0.257
		C504.152,480.025,504.297,479.942,504.44,479.852z"/>
	<path style="fill:#E3E6E9;" d="M501.045,481.462c-0.1,0.033-0.202,0.059-0.302,0.09
		C500.843,481.521,500.945,481.495,501.045,481.462z"/>
	<path style="fill:#E3E6E9;" d="M501.523,385.121L276.508,14.934C272.117,7.715,264.453,3.402,256,3.402
		s-16.117,4.313-20.508,11.531L10.477,385.121C3.625,396.394,0,409.332,0,422.527v0.136l80.922-20.883l-0.901-12.612
		c-0.039-0.523-0.023-1.047,0.039-1.563l8-64c0.5-4,3.906-7.008,7.938-7.008h48c4.031,0,7.438,3.008,7.938,7.008l7.247,57.978
		l37.262-9.616l15.842-200.671l0,0l3.737-47.332c0.18-2.289,1.336-4.391,3.18-5.766l22.398-16.797
		c8.469-6.359,20.328-6.359,28.797,0l22.398,16.797c1.844,1.375,3,3.477,3.18,5.766l3.737,47.332l0,0l15.843,200.671l37.26,9.615
		l7.247-57.977c0.5-4,3.906-7.008,7.938-7.008h48c4.031,0,7.438,3.008,7.938,7.008l8,64c0.063,0.516,0.078,1.039,0.039,1.563
		l-0.901,12.611L512,422.663v-0.136C512,409.332,508.375,396.394,501.523,385.121z"/>
	<path style="fill:#E3E6E9;" d="M495.677,482.274c-0.03-0.001-0.059-0.002-0.088-0.003
		C495.618,482.272,495.647,482.273,495.677,482.274z"/>
	<path style="fill:#E3E6E9;" d="M493.837,482.128c-0.02-0.003-0.039-0.006-0.059-0.009
		C493.798,482.122,493.818,482.126,493.837,482.128z"/>
	<path style="fill:#B6B8BE;" d="M352.023,389.168c-0.039-0.523-0.023-1.047,0.039-1.563l0.753-6.022l-37.26-9.615l4.421,55.997
		c0.172,2.227-0.586,4.422-2.102,6.063s-3.641,2.57-5.875,2.57h-0.984l45.201,11.282L352.023,389.168z"/>
	<path style="fill:#B6B8BE;" d="M426.529,465.429l65.533,16.356c0.569,0.146,1.142,0.253,1.716,0.334
		c0.02,0.003,0.039,0.007,0.059,0.009c0.584,0.081,1.168,0.127,1.751,0.143c0.03,0.001,0.059,0.002,0.088,0.003
		c0.118,0.003,0.236,0.011,0.354,0.011c0.473,0,0.944-0.026,1.414-0.068c0.003,0,0.005-0.001,0.008-0.001
		c0.534-0.048,1.064-0.131,1.59-0.234c0.131-0.026,0.262-0.053,0.392-0.082c0.44-0.097,0.876-0.213,1.307-0.348
		c0.1-0.031,0.202-0.056,0.302-0.09c0.502-0.168,0.996-0.364,1.482-0.582c0.136-0.061,0.269-0.132,0.404-0.197
		c0.365-0.177,0.724-0.368,1.078-0.573c0.145-0.084,0.29-0.168,0.432-0.257c0.463-0.289,0.919-0.595,1.357-0.935
		c3.945-3.055,6.203-7.664,6.203-12.648v-43.606l-80.924-20.884L426.529,465.429z"/>
	<path style="fill:#B6B8BE;" d="M194.125,434.027c-1.516-1.641-2.273-3.836-2.102-6.063l4.421-55.997l-37.262,9.616l0.753,6.022
		c0.063,0.516,0.078,1.039,0.039,1.563l-4.194,58.712l45.204-11.282H200C197.766,436.597,195.641,435.668,194.125,434.027z"/>
	<path style="fill:#B6B8BE;" d="M0,422.663v43.606c0,4.984,2.258,9.594,6.203,12.648c2.852,2.211,6.281,3.367,9.766,3.367
		c1.32,0,2.656-0.164,3.969-0.5l65.531-16.356l-4.546-63.649L0,422.663z"/>
	<path style="fill:#888693;" d="M317.875,434.027c1.516-1.641,2.273-3.836,2.102-6.063l-4.421-55.997l-15.843-200.671
		l-33.905-25.429c-0.581-0.436-1.188-0.816-1.809-1.164v0.22c-5-2.843-11-2.842-16,0v-0.221c-0.62,0.349-1.228,0.728-1.809,1.164
		l-33.905,25.429l-15.842,200.671l-4.421,55.997c-0.172,2.227,0.586,4.422,2.102,6.063s3.641,2.57,5.875,2.57h0.984h4.01H248v-112
		c0-4.422,3.578-8,8-8s8,3.578,8,8v112h43.005h4.01H312C314.234,436.597,316.359,435.668,317.875,434.027z"/>
	<path style="fill:#5C546A;" d="M248,144.703V98.027c5.169-1.813,10.831-1.813,16,0v46.676c0.62,0.349,1.228,0.728,1.809,1.164
		l33.905,25.429l0,0l-3.737-47.332c-0.18-2.289-1.336-4.391-3.18-5.766l-22.398-16.797c-8.469-6.359-20.328-6.359-28.797,0
		l-22.398,16.797c-1.844,1.375-3,3.477-3.18,5.766l-3.737,47.332l0,0l33.905-25.429C246.772,145.432,247.38,145.052,248,144.703z"/>
	<path style="fill:#888693;" d="M431.076,401.779l0.901-12.611c0.039-0.523,0.023-1.047-0.039-1.563
		c0.04,0.328,0.025,0.661,0.025,0.993h-79.925c0-0.332-0.015-0.665,0.025-0.993c-0.063,0.516-0.078,1.039-0.039,1.563l4.194,58.711
		l3.806,53.288c0.297,4.188,3.781,7.43,7.977,7.43h48c4.195,0,7.68-3.242,7.977-7.43l2.553-35.739L431.076,401.779z"/>
	<path style="fill:#5C546A;" d="M256,316.598c-4.422,0-8,3.578-8,8v112v64c0,4.422,3.578,8,8,8s8-3.578,8-8v-64v-112
		C264,320.176,260.422,316.598,256,316.598z"/>
	<path style="fill:#5C546A;" d="M352.037,388.598h79.925c0-0.332,0.015-0.665-0.025-0.993l-8-64c-0.5-4-3.906-7.008-7.938-7.008h-48
		c-4.031,0-7.438,3.008-7.938,7.008l-7.247,57.977l-0.753,6.022C352.023,387.933,352.037,388.266,352.037,388.598z"/>
	<path style="fill:#888693;" d="M159.935,387.605c0.04,0.328,0.025,0.661,0.025,0.993H80.035c0-0.332-0.015-0.665,0.025-0.993
		c-0.063,0.516-0.078,1.039-0.039,1.563l0.901,12.612l4.546,63.649l2.553,35.739c0.297,4.188,3.781,7.43,7.977,7.43h48
		c4.195,0,7.68-3.242,7.977-7.43l3.806-53.288l4.194-58.712C160.013,388.644,159.998,388.121,159.935,387.605z"/>
	<path style="fill:#5C546A;" d="M80.035,388.598h79.925c0-0.332,0.015-0.665-0.025-0.993l-0.753-6.022l-7.247-57.978
		c-0.5-4-3.906-7.008-7.938-7.008h-48c-4.031,0-7.438,3.008-7.938,7.008l-8,64C80.021,387.933,80.035,388.266,80.035,388.598z"/>
	<path style="fill:#B6B8BE;" d="M248,98.027v46.676v0.221c5-2.843,11-2.843,16,0v-0.22V98.027
		C258.831,96.215,253.169,96.215,248,98.027z"/>
</g>
<g>
</g>
<g>
</g>
<g>
</g>
<g>
</g>
<g>
</g>
<g>
</g>
<g>
</g>
<g>
</g>
<g>
</g>
<g>
</g>
<g>
</g>
<g>
</g>
<g>
</g>
<g>
</g>
<g>
</g>
</svg>
