<?xml version="1.0" encoding="iso-8859-1"?>
<!-- Generator: Adobe Illustrator 19.0.0, SVG Export Plug-In . SVG Version: 6.00 Build 0)  -->
<svg version="1.1" id="Capa_1" xmlns="http://www.w3.org/2000/svg" xmlns:xlink="http://www.w3.org/1999/xlink" x="0px" y="0px"
	 viewBox="0 0 480.005 480.005" style="enable-background:new 0 0 480.005 480.005;" xml:space="preserve">
<g>
	<path style="fill:#FFCF00;" d="M134.534,41.724l13.36,38.967c27.089-15.696,58.548-24.686,92.108-24.686
		c101.62,0,184,82.38,184,184c0,42.147-14.181,80.977-38.019,112h66.321c18.151-34.365,27.697-72.8,27.697-112
		c0-65.352-25.805-126.445-72.648-172.031C360.518,22.412,298.721-1.682,233.26,0.091c-37.724,1.039-74.848,11.261-107.811,29.629
		C129.64,32.588,132.825,36.742,134.534,41.724z"/>
	<path style="fill:#FF9300;" d="M240.003,56.005c-33.56,0-65.019,8.99-92.108,24.686l72.787,212.288
		c5.728-3.167,12.313-4.975,19.322-4.975c22.091,0,40,17.909,40,40c0,5.864-1.272,11.428-3.54,16.446
		c11.849,5.008,24.404,7.554,37.329,7.554h72.192c23.837-31.023,38.019-69.852,38.019-112
		C424.003,138.385,341.623,56.005,240.003,56.005z"/>
	<path style="fill:#E3E6E9;" d="M0.003,169.873v0.004c0-0.285,0.011-0.568,0.013-0.853C0.014,169.307,0.003,169.589,0.003,169.873z"
		/>
	<path style="fill:#E3E6E9;" d="M480.003,376.005c0-13.234-10.766-24-24-24h-3.697h-66.321h-72.192
		c-12.925,0-25.48-2.545-37.329-7.554c-6.274,13.885-20.233,23.553-36.46,23.553c-22.091,0-40-17.909-40-40
		c0-15.083,8.351-28.211,20.678-35.025L147.894,80.691l-13.36-38.967c-1.709-4.982-4.894-9.136-9.085-12.004
		c-1.901-1.301-4.01-2.338-6.282-3.067c-7.313-2.344-15.047-1.133-21.281,3.32l-40.93,29.234l13.703-9.788l50.106,271.383
		c4.558,24.687,20.439,45.802,42.893,57.029l37.22,18.61h267.695C475.424,392.208,480.003,384.63,480.003,376.005z"/>
	<path style="fill:#B6B8BE;" d="M200.878,396.443l-37.22-18.61c-22.454-11.227-38.335-32.342-42.893-57.029L70.659,49.421
		l-13.703,9.788C21.447,84.571,0.289,125.422,0.016,169.024c-0.002,0.285-0.013,0.568-0.013,0.853v206.128
		c0,8.625,4.578,16.203,11.43,20.438H200.878z"/>
	<path style="fill:#888693;" d="M200.878,396.443H11.432l-2.023,3.031c-6.156,9.227-9.406,19.969-9.406,31.062v1.469h256
		c4.422,0,8,3.578,8,8s-3.578,8-8,8h-256v24c0,4.422,3.578,8,8,8h344c-4.422,0-8-3.578-8-8v-32c0-13.234,10.766-24,24-24h104
		c3.048,0,5.695,1.701,7.045,4.207c-1.378-7.375-4.231-14.413-8.452-20.738l-2.023-3.031H200.878z M293.682,445.685
		c-1.523,1.438-3.523,2.32-5.68,2.32c-2.078,0-4.164-0.883-5.68-2.32c-1.445-1.523-2.32-3.602-2.32-5.68s0.875-4.164,2.32-5.68
		c2.961-2.961,8.398-2.961,11.359,0c1.438,1.516,2.32,3.516,2.32,5.68C296.003,442.083,295.12,444.161,293.682,445.685z
		 M325.682,445.685c-1.523,1.438-3.523,2.32-5.68,2.32c-2.078,0-4.164-0.883-5.68-2.32c-1.445-1.523-2.32-3.602-2.32-5.68
		s0.875-4.164,2.32-5.68c2.961-2.961,8.477-2.961,11.359,0c1.438,1.516,2.32,3.516,2.32,5.68
		C328.003,442.083,327.12,444.161,325.682,445.685z"/>
	<path style="fill:#5C546A;" d="M240.003,288.005c-7.009,0-13.593,1.808-19.322,4.975c-12.327,6.815-20.678,19.943-20.678,35.025
		c0,22.091,17.909,40,40,40c16.227,0,30.187-9.668,36.46-23.553c2.267-5.018,3.54-10.582,3.54-16.446
		C280.003,305.914,262.094,288.005,240.003,288.005z"/>
	<path style="fill:#5C546A;" d="M314.323,434.326c-1.445,1.516-2.32,3.602-2.32,5.68s0.875,4.156,2.32,5.68
		c1.516,1.438,3.602,2.32,5.68,2.32c2.156,0,4.156-0.883,5.68-2.32c1.438-1.523,2.32-3.602,2.32-5.68c0-2.164-0.883-4.164-2.32-5.68
		C322.799,431.365,317.284,431.365,314.323,434.326z"/>
	<path style="fill:#5C546A;" d="M282.323,434.326c-1.445,1.516-2.32,3.602-2.32,5.68s0.875,4.156,2.32,5.68
		c1.516,1.438,3.602,2.32,5.68,2.32c2.156,0,4.156-0.883,5.68-2.32c1.438-1.523,2.32-3.602,2.32-5.68c0-2.164-0.883-4.164-2.32-5.68
		C290.721,431.365,285.284,431.365,282.323,434.326z"/>
	<path style="fill:#5C546A;" d="M472.003,416.005h-104c-13.234,0-24,10.766-24,24v32c0,4.422,3.578,8,8,8h120c4.422,0,8-3.578,8-8
		v-41.469v-6.531c0-1.373-0.346-2.665-0.955-3.793C477.698,417.706,475.051,416.005,472.003,416.005z"/>
	<path style="fill:#5C546A;" d="M264.003,440.005c0-4.422-3.578-8-8-8h-256v5.867v10.133h256
		C260.424,448.005,264.003,444.427,264.003,440.005z"/>
</g>
<g>
</g>
<g>
</g>
<g>
</g>
<g>
</g>
<g>
</g>
<g>
</g>
<g>
</g>
<g>
</g>
<g>
</g>
<g>
</g>
<g>
</g>
<g>
</g>
<g>
</g>
<g>
</g>
<g>
</g>
</svg>
