<?xml version="1.0" encoding="iso-8859-1"?>
<!-- Generator: Adobe Illustrator 18.0.0, SVG Export Plug-In . SVG Version: 6.00 Build 0)  -->
<!DOCTYPE svg PUBLIC "-//W3C//DTD SVG 1.1//EN" "http://www.w3.org/Graphics/SVG/1.1/DTD/svg11.dtd">
<svg version="1.1" id="Capa_1" xmlns="http://www.w3.org/2000/svg" xmlns:xlink="http://www.w3.org/1999/xlink" x="0px" y="0px"
	 viewBox="0 0 129.839 129.839" style="enable-background:new 0 0 129.839 129.839;" xml:space="preserve">
<g>
	<g>
		<g>
			<g>
				<path style="fill:#FFC847;" d="M64.92,18.919c-0.663,0-1.2-0.537-1.2-1.2v-5.447c0-0.663,0.537-1.2,1.2-1.2
					c0.663,0,1.2,0.537,1.2,1.2v5.447C66.12,18.382,65.583,18.919,64.92,18.919z"/>
			</g>
			<g>
				<path style="fill:#FFC847;" d="M64.92,7.848c-0.663,0-1.2-0.537-1.2-1.2V1.2c0-0.663,0.537-1.2,1.2-1.2
					c0.663,0,1.2,0.537,1.2,1.2v5.447C66.12,7.311,65.583,7.848,64.92,7.848z"/>
			</g>
			<g>
				<path style="fill:#FFC847;" d="M64.92,42.189c-0.663,0-1.2-0.537-1.2-1.2V24.427c0-0.663,0.537-1.2,1.2-1.2
					c0.663,0,1.2,0.537,1.2,1.2v16.563C66.12,41.652,65.583,42.189,64.92,42.189z"/>
			</g>
		</g>
		<g>
			<g>
				<path style="fill:#FFC847;" d="M64.92,118.768c-0.663,0-1.2-0.537-1.2-1.2v-5.448c0-0.663,0.537-1.2,1.2-1.2
					c0.663,0,1.2,0.537,1.2,1.2v5.448C66.12,118.23,65.583,118.768,64.92,118.768z"/>
			</g>
			<g>
				<path style="fill:#FFC847;" d="M64.92,129.839c-0.663,0-1.2-0.537-1.2-1.2v-5.448c0-0.663,0.537-1.2,1.2-1.2
					c0.663,0,1.2,0.537,1.2,1.2v5.448C66.12,129.302,65.583,129.839,64.92,129.839z"/>
			</g>
			<g>
				<path style="fill:#FFC847;" d="M64.92,106.612c-0.663,0-1.2-0.537-1.2-1.2V88.849c0-0.663,0.537-1.2,1.2-1.2
					c0.663,0,1.2,0.537,1.2,1.2v16.563C66.12,106.075,65.583,106.612,64.92,106.612z"/>
			</g>
		</g>
	</g>
	<g>
		<g>
			<g>
				<path style="fill:#FFC847;" d="M46.858,22.513c-0.471,0-0.917-0.279-1.108-0.741l-2.085-5.033
					c-0.254-0.612,0.037-1.314,0.649-1.567c0.608-0.254,1.313,0.038,1.567,0.649l2.085,5.033c0.254,0.612-0.037,1.314-0.65,1.567
					C47.167,22.483,47.011,22.513,46.858,22.513z"/>
			</g>
			<g>
				<path style="fill:#FFC847;" d="M55.763,44.011c-0.471,0-0.917-0.278-1.108-0.741l-6.339-15.302
					c-0.254-0.612,0.037-1.314,0.649-1.567c0.609-0.253,1.314,0.036,1.567,0.649l6.339,15.302c0.254,0.612-0.037,1.314-0.649,1.567
					C56.072,43.981,55.916,44.011,55.763,44.011z"/>
			</g>
		</g>
		<g>
			<g>
				<path style="fill:#FFC847;" d="M85.067,114.76c-0.471,0-0.917-0.279-1.108-0.741l-2.085-5.033
					c-0.254-0.612,0.037-1.314,0.649-1.567c0.609-0.253,1.314,0.037,1.567,0.649l2.085,5.033c0.254,0.612-0.037,1.314-0.649,1.567
					C85.377,114.73,85.221,114.76,85.067,114.76z"/>
			</g>
			<g>
				<path style="fill:#FFC847;" d="M80.416,103.53c-0.471,0-0.917-0.279-1.108-0.741l-6.339-15.303
					c-0.254-0.612,0.037-1.314,0.649-1.567c0.613-0.253,1.314,0.037,1.567,0.649l6.339,15.303c0.254,0.612-0.037,1.314-0.649,1.567
					C80.725,103.501,80.569,103.53,80.416,103.53z"/>
			</g>
		</g>
	</g>
	<g>
		<g>
			<g>
				<path style="fill:#FFC847;" d="M31.545,32.744c-0.307,0-0.614-0.117-0.849-0.352l-3.852-3.853c-0.469-0.469-0.469-1.229,0-1.697
					c0.469-0.469,1.228-0.469,1.697,0l3.852,3.853c0.469,0.469,0.469,1.229,0,1.697C32.159,32.627,31.852,32.744,31.545,32.744z"/>
			</g>
			<g>
				<path style="fill:#FFC847;" d="M23.716,24.915c-0.307,0-0.614-0.117-0.849-0.352l-3.852-3.851c-0.469-0.469-0.469-1.229,0-1.697
					c0.469-0.468,1.228-0.469,1.697,0l3.853,3.852c0.469,0.469,0.469,1.229,0,1.697C24.33,24.798,24.024,24.915,23.716,24.915z"/>
			</g>
			<g>
				<path style="fill:#FFC847;" d="M47.999,49.198c-0.307,0-0.614-0.117-0.849-0.352L35.438,37.135
					c-0.469-0.469-0.469-1.229,0-1.697c0.469-0.469,1.229-0.469,1.697,0L48.848,47.15c0.469,0.469,0.469,1.228,0,1.697
					C48.613,49.081,48.306,49.198,47.999,49.198z"/>
			</g>
		</g>
		<g>
			<g>
				<path style="fill:#FFC847;" d="M102.147,103.347c-0.307,0-0.614-0.117-0.849-0.352l-3.853-3.852
					c-0.469-0.469-0.469-1.229,0-1.697c0.468-0.467,1.228-0.469,1.697,0l3.853,3.852c0.469,0.469,0.469,1.229,0,1.697
					C102.762,103.229,102.455,103.347,102.147,103.347z"/>
			</g>
			<g>
				<path style="fill:#FFC847;" d="M109.977,111.176c-0.307,0-0.614-0.117-0.849-0.351l-3.853-3.853
					c-0.469-0.469-0.469-1.229,0-1.697c0.469-0.469,1.229-0.469,1.697,0l3.852,3.853c0.469,0.469,0.469,1.229,0,1.697
					C110.591,111.059,110.283,111.176,109.977,111.176z"/>
			</g>
			<g>
				<path style="fill:#FFC847;" d="M93.553,94.752c-0.307,0-0.614-0.117-0.849-0.352L80.992,82.688
					c-0.469-0.469-0.469-1.229,0-1.697c0.469-0.469,1.229-0.469,1.697,0l11.712,11.712c0.469,0.469,0.469,1.229,0,1.697
					C94.167,94.635,93.859,94.752,93.553,94.752z"/>
			</g>
		</g>
	</g>
	<g>
		<g>
			<g>
				<path style="fill:#FFC847;" d="M21.313,48.057c-0.153,0-0.309-0.029-0.459-0.092L15.82,45.88
					c-0.612-0.253-0.903-0.955-0.649-1.567c0.254-0.612,0.956-0.903,1.567-0.649l5.033,2.085c0.612,0.253,0.903,0.955,0.649,1.567
					C22.23,47.777,21.783,48.057,21.313,48.057z"/>
			</g>
			<g>
				<path style="fill:#FFC847;" d="M11.084,43.82c-0.153,0-0.309-0.029-0.459-0.092l-5.033-2.085
					c-0.612-0.253-0.903-0.955-0.649-1.567c0.254-0.612,0.956-0.904,1.567-0.649l5.033,2.085c0.612,0.253,0.903,0.955,0.649,1.567
					C12.001,43.541,11.555,43.82,11.084,43.82z"/>
			</g>
			<g>
				<path style="fill:#FFC847;" d="M42.812,56.962c-0.153,0-0.309-0.029-0.459-0.092L27.05,50.531
					c-0.612-0.253-0.903-0.955-0.649-1.567c0.254-0.612,0.955-0.902,1.567-0.649l15.303,6.339c0.612,0.253,0.903,0.955,0.65,1.567
					C43.729,56.683,43.282,56.962,42.812,56.962z"/>
			</g>
		</g>
		<g>
			<g>
				<path style="fill:#FFC847;" d="M113.56,86.267c-0.153,0-0.31-0.029-0.459-0.092l-5.032-2.085
					c-0.612-0.254-0.903-0.955-0.649-1.567c0.254-0.612,0.96-0.903,1.567-0.649l5.032,2.085c0.612,0.254,0.903,0.955,0.649,1.567
					C114.477,85.987,114.03,86.267,113.56,86.267z"/>
			</g>
			<g>
				<path style="fill:#FFC847;" d="M102.33,81.615c-0.153,0-0.309-0.029-0.459-0.092l-15.302-6.339
					c-0.612-0.253-0.903-0.955-0.649-1.567c0.254-0.612,0.956-0.903,1.567-0.649l15.302,6.339c0.612,0.253,0.903,0.955,0.649,1.567
					C103.247,81.336,102.801,81.615,102.33,81.615z"/>
			</g>
		</g>
	</g>
	<g>
		<g>
			<g>
				<path style="fill:#FFC847;" d="M17.72,66.119h-5.447c-0.663,0-1.2-0.537-1.2-1.2s0.537-1.2,1.2-1.2h5.447
					c0.663,0,1.2,0.537,1.2,1.2S18.383,66.119,17.72,66.119z"/>
			</g>
			<g>
				<path style="fill:#FFC847;" d="M6.649,66.119H1.2c-0.663,0-1.2-0.537-1.2-1.2s0.537-1.2,1.2-1.2h5.448
					c0.663,0,1.2,0.537,1.2,1.2S7.312,66.119,6.649,66.119z"/>
			</g>
			<g>
				<path style="fill:#FFC847;" d="M40.99,66.119H24.427c-0.663,0-1.2-0.537-1.2-1.2s0.537-1.2,1.2-1.2H40.99
					c0.663,0,1.2,0.537,1.2,1.2S41.653,66.119,40.99,66.119z"/>
			</g>
		</g>
		<g>
			<g>
				<path style="fill:#FFC847;" d="M117.567,66.119h-5.448c-0.663,0-1.2-0.537-1.2-1.2s0.537-1.2,1.2-1.2h5.448
					c0.663,0,1.2,0.537,1.2,1.2S118.23,66.119,117.567,66.119z"/>
			</g>
			<g>
				<path style="fill:#FFC847;" d="M128.639,66.119h-5.447c-0.663,0-1.2-0.537-1.2-1.2s0.537-1.2,1.2-1.2h5.447
					c0.663,0,1.2,0.537,1.2,1.2S129.302,66.119,128.639,66.119z"/>
			</g>
			<g>
				<path style="fill:#FFC847;" d="M105.413,66.119H88.85c-0.663,0-1.2-0.537-1.2-1.2s0.537-1.2,1.2-1.2h16.563
					c0.663,0,1.2,0.537,1.2,1.2S106.076,66.119,105.413,66.119z"/>
			</g>
		</g>
	</g>
	<g>
		<g>
			<g>
				<path style="fill:#FFC847;" d="M16.279,86.267c-0.471,0-0.917-0.279-1.108-0.741c-0.254-0.612,0.037-1.314,0.649-1.567
					l5.033-2.085c0.61-0.253,1.313,0.037,1.567,0.649c0.254,0.612-0.037,1.314-0.649,1.567l-5.033,2.085
					C16.589,86.237,16.433,86.267,16.279,86.267z"/>
			</g>
			<g>
				<path style="fill:#FFC847;" d="M27.509,81.615c-0.471,0-0.917-0.279-1.108-0.741c-0.254-0.612,0.037-1.314,0.649-1.567
					l15.303-6.339c0.614-0.253,1.313,0.037,1.567,0.649c0.254,0.612-0.037,1.314-0.65,1.567l-15.303,6.339
					C27.817,81.586,27.662,81.615,27.509,81.615z"/>
			</g>
		</g>
		<g>
			<g>
				<path style="fill:#FFC847;" d="M108.527,48.057c-0.471,0-0.917-0.278-1.108-0.741c-0.254-0.612,0.037-1.313,0.649-1.567
					l5.032-2.085c0.609-0.254,1.314,0.036,1.567,0.649c0.254,0.612-0.037,1.313-0.649,1.567l-5.032,2.085
					C108.837,48.027,108.681,48.057,108.527,48.057z"/>
			</g>
			<g>
				<path style="fill:#FFC847;" d="M87.028,56.962c-0.471,0-0.917-0.278-1.108-0.741c-0.254-0.612,0.037-1.314,0.649-1.567
					l15.302-6.339c0.61-0.253,1.313,0.036,1.567,0.649c0.254,0.612-0.037,1.314-0.649,1.567L87.487,56.87
					C87.338,56.933,87.182,56.962,87.028,56.962z"/>
			</g>
		</g>
	</g>
	<g>
		<g>
			<g>
				<path style="fill:#FFC847;" d="M27.692,103.347c-0.308,0-0.614-0.117-0.849-0.352c-0.469-0.469-0.469-1.229,0-1.697l3.852-3.852
					c0.471-0.469,1.231-0.467,1.697,0c0.469,0.469,0.469,1.229,0,1.697l-3.852,3.852C28.307,103.229,27.999,103.347,27.692,103.347z
					"/>
			</g>
			<g>
				<path style="fill:#FFC847;" d="M19.863,111.176c-0.307,0-0.614-0.117-0.849-0.351c-0.469-0.469-0.469-1.229,0-1.697l3.852-3.853
					c0.469-0.469,1.229-0.469,1.697,0c0.469,0.469,0.469,1.229,0,1.697l-3.853,3.853C20.478,111.059,20.17,111.176,19.863,111.176z"
					/>
			</g>
			<g>
				<path style="fill:#FFC847;" d="M36.287,94.752c-0.307,0-0.614-0.117-0.849-0.352c-0.469-0.469-0.469-1.229,0-1.697L47.15,80.991
					c0.469-0.469,1.228-0.469,1.697,0c0.469,0.469,0.469,1.229,0,1.697L37.136,94.4C36.901,94.635,36.594,94.752,36.287,94.752z"/>
			</g>
		</g>
		<g>
			<g>
				<path style="fill:#FFC847;" d="M98.295,32.744c-0.307,0-0.614-0.117-0.849-0.352c-0.469-0.469-0.469-1.229,0-1.697l3.853-3.853
					c0.469-0.469,1.229-0.469,1.697,0c0.469,0.469,0.469,1.229,0,1.697l-3.853,3.853C98.909,32.627,98.602,32.744,98.295,32.744z"/>
			</g>
			<g>
				<path style="fill:#FFC847;" d="M106.124,24.915c-0.308,0-0.614-0.117-0.849-0.352c-0.469-0.469-0.469-1.229,0-1.697l3.853-3.852
					c0.47-0.469,1.229-0.468,1.697,0c0.469,0.469,0.469,1.229,0,1.697l-3.852,3.851C106.738,24.798,106.431,24.915,106.124,24.915z"
					/>
			</g>
			<g>
				<path style="fill:#FFC847;" d="M81.841,49.198c-0.307,0-0.614-0.117-0.849-0.352c-0.469-0.469-0.469-1.229,0-1.697
					l11.712-11.712c0.469-0.469,1.229-0.469,1.697,0c0.469,0.469,0.469,1.229,0,1.697L82.689,48.847
					C82.455,49.081,82.147,49.198,81.841,49.198z"/>
			</g>
		</g>
	</g>
	<g>
		<g>
			<g>
				<path style="fill:#FFC847;" d="M44.772,114.76c-0.153,0-0.309-0.029-0.459-0.092c-0.612-0.253-0.903-0.955-0.649-1.567
					l2.085-5.033c0.254-0.612,0.955-0.902,1.567-0.649c0.612,0.253,0.903,0.955,0.65,1.567l-2.085,5.033
					C45.689,114.48,45.243,114.76,44.772,114.76z"/>
			</g>
			<g>
				<path style="fill:#FFC847;" d="M49.424,103.53c-0.153,0-0.309-0.029-0.459-0.092c-0.612-0.253-0.903-0.955-0.649-1.567
					l6.339-15.303c0.254-0.612,0.955-0.902,1.567-0.649c0.612,0.253,0.903,0.955,0.649,1.567l-6.339,15.303
					C50.341,103.251,49.895,103.53,49.424,103.53z"/>
			</g>
		</g>
		<g>
			<g>
				<path style="fill:#FFC847;" d="M82.982,22.513c-0.153,0-0.309-0.029-0.459-0.092c-0.612-0.253-0.903-0.955-0.649-1.567
					l2.085-5.033c0.254-0.611,0.955-0.903,1.567-0.649c0.612,0.253,0.903,0.955,0.649,1.567l-2.085,5.033
					C83.899,22.233,83.453,22.513,82.982,22.513z"/>
			</g>
			<g>
				<path style="fill:#FFC847;" d="M74.077,44.011c-0.153,0-0.309-0.029-0.459-0.092c-0.612-0.253-0.903-0.955-0.649-1.567
					l6.339-15.302c0.254-0.612,0.957-0.902,1.567-0.649c0.612,0.253,0.903,0.955,0.649,1.567L75.186,43.27
					C74.994,43.731,74.548,44.011,74.077,44.011z"/>
			</g>
		</g>
	</g>
	<g>
		<polygon style="fill:#FFC847;" points="64.92,52.043 68.2,62.763 78.92,66.043 68.2,69.323 64.92,80.043 61.64,69.323 
			50.92,66.043 61.64,62.763 		"/>
	</g>
</g>
<g>
</g>
<g>
</g>
<g>
</g>
<g>
</g>
<g>
</g>
<g>
</g>
<g>
</g>
<g>
</g>
<g>
</g>
<g>
</g>
<g>
</g>
<g>
</g>
<g>
</g>
<g>
</g>
<g>
</g>
</svg>
