<?xml version="1.0" encoding="iso-8859-1"?>
<!-- Generator: Adobe Illustrator 19.0.0, SVG Export Plug-In . SVG Version: 6.00 Build 0)  -->
<svg version="1.1" id="Capa_1" xmlns="http://www.w3.org/2000/svg" xmlns:xlink="http://www.w3.org/1999/xlink" x="0px" y="0px"
	 viewBox="0 0 464 464" style="enable-background:new 0 0 464 464;" xml:space="preserve">
<path style="fill:#FFCB5A;" d="M390.16,120.16c4.311,5.686,8.291,11.616,11.92,17.76c5.825,9.734,10.726,19.992,14.64,30.64
	c5.209,13.992,8.623,28.589,10.16,43.44c1.735,15.383,1.466,30.926-0.8,46.24c-14.499,100.581-107.789,170.364-208.37,155.866
	c-54.992-7.927-103.458-40.279-131.87-88.026c-25.608-43.197-32.512-94.962-19.12-143.36
	C93.957,84.795,195.421,27.491,293.346,54.728C331.869,65.443,365.854,88.412,390.16,120.16L390.16,120.16z"/>
<path style="fill:#F38A68;" d="M149.92,73.84c32.06-19.155,69.227-28.007,106.48-25.36c-39.92,31.04-36.16,44.88-84.56,79.2
	c-49.44,34.96-60.72,25.76-105.12,55.04C79.33,137.033,109.15,98.009,149.92,73.84L149.92,73.84z"/>
<path style="fill:#D95354;" d="M402.08,137.92c5.825,9.734,10.726,19.992,14.64,30.64c5.209,13.992,8.623,28.589,10.16,43.44
	l-0.64,0.08c-31.28,13.36-53.12,6.56-78.16,15.28c-25.04,8.72-35.76,18.16-46.48,39.28s-6.16,43.12-35.6,60.08
	c-25.12,14.48-39.04,3.52-61.52,10s-79.52,32.48-79.52,32.48l-1.52,1.84c-14.858-12.879-27.553-28.058-37.6-44.96
	c-5.731-9.637-10.552-19.788-14.4-30.32l4.08-1.44c0,0,36.16,0,59.2-16.08s32.48-54.96,78.88-74.8s60.72-3.52,90-11.68
	c28.64-7.92,77.28-45.92,86.56-71.6C394.471,125.846,398.451,131.776,402.08,137.92L402.08,137.92z"/>
<path style="fill:#E76E54;" d="M426.88,212c1.735,15.383,1.466,30.926-0.8,46.24c-58.88,34.48-52.32,48.56-113.6,83.84
	c-62.4,35.92-74.88,24.64-137.28,60.56c-18.9-7.562-36.397-18.244-51.76-31.6l1.52-1.84c0,0,57.04-25.92,79.52-32.48
	s36.4,4.48,61.52-10c29.44-16.96,24.88-38.96,35.6-60.08s21.36-30.56,46.48-39.28s46.88-1.92,78.16-15.28L426.88,212z"/>
<path style="fill:#FFCB5A;" d="M390.16,120.16c-9.28,25.68-57.92,63.68-86.56,71.6c-29.28,8.16-43.6-8.16-90,11.68
	s-55.84,58.8-78.88,74.8s-59.2,16.08-59.2,16.08l-4.08,1.44c-5.741-15.41-9.348-31.533-10.72-47.92
	c64.32-42,74.88-30.88,142.72-76.32s61.6-59.36,125.12-102.96C352.638,81.021,373.671,98.639,390.16,120.16L390.16,120.16z"/>
<path style="fill:#E76E54;" d="M328.56,68.56c-63.52,43.6-57.2,57.44-125.12,102.96s-78.4,34.32-142.72,76.32
	c-1.947-21.891,0.085-43.953,6-65.12c44.4-29.28,55.68-20.08,105.12-55.04c48.4-34.32,44.64-48.16,84.56-79.2
	C281.57,50.186,306.126,57.019,328.56,68.56z"/>
<path style="fill:#F38A68;" d="M312.48,342.08c61.28-35.28,54.72-49.36,113.6-83.84c-14.507,100.58-107.803,170.355-208.383,155.848
	c-14.573-2.102-28.84-5.945-42.497-11.448C237.6,366.72,250.08,378,312.48,342.08z"/>
<path style="fill:#E76E54;" d="M208.456,248.336c-14.128,8.44-19.392,23.704-24,37.176c-2.164,9.4-6.767,18.064-13.344,25.12
	c-27.248,21.8-71.792,24.384-79.24,24.664c3.49,5.221,7.242,10.262,11.24,15.104c14.264-0.92,50.624-5.4,77.976-27.28
	c9.107-8.822,15.51-20.059,18.456-32.392c4.12-11.936,8-23.2,17.096-28.648c12.522-7.386,28.658-3.259,36.096,9.232
	c2.409,3.999,3.112,8.798,1.952,13.32c-1.145,4.577-4.079,8.502-8.144,10.896c-5.299,3.191-12.181,1.482-15.372-3.817
	c-0.036-0.061-0.072-0.121-0.108-0.183c-1.786-3.023-0.822-6.919,2.168-8.76c0.674-0.393,1.474-0.511,2.232-0.328
	c0.72,0.183,1.335,0.651,1.704,1.296l13.816-8.064c-2.515-4.345-6.678-7.492-11.544-8.728c-4.888-1.248-10.071-0.494-14.4,2.096
	c-10.576,6.391-14.004,20.124-7.672,30.736c7.637,12.936,24.315,17.231,37.251,9.594c0.042-0.025,0.083-0.049,0.125-0.074
	c15.975-9.443,21.27-30.047,11.828-46.022c-0.03-0.051-0.061-0.103-0.092-0.154C254.518,243.043,228.566,236.431,208.456,248.336
	L208.456,248.336z"/>
<path style="fill:#D95354;" d="M44,464H28v-24c0-13.255-10.745-24-24-24v-16c13.255,0,24-10.745,24-24v-24h16v24
	c0,13.255,10.745,24,24,24v16c-13.255,0-24,10.745-24,24V464z M28,408c3.027,2.28,5.72,4.973,8,8c2.28-3.027,4.973-5.72,8-8
	c-3.027-2.28-5.72-4.973-8-8C33.72,403.027,31.027,405.72,28,408z"/>
<g>
	<path style="fill:#FFCB5A;" d="M444,16h16v16h-16V16z"/>
	<path style="fill:#FFCB5A;" d="M412,16h16v16h-16V16z"/>
	<path style="fill:#FFCB5A;" d="M428,0h16v16h-16V0z"/>
	<path style="fill:#FFCB5A;" d="M428,32h16v16h-16V32z"/>
</g>
<circle cx="436" cy="424" r="8"/>
<g>
</g>
<g>
</g>
<g>
</g>
<g>
</g>
<g>
</g>
<g>
</g>
<g>
</g>
<g>
</g>
<g>
</g>
<g>
</g>
<g>
</g>
<g>
</g>
<g>
</g>
<g>
</g>
<g>
</g>
</svg>
